<svg width="1921" height="1080" viewBox="0 0 1921 1080" fill="none" xmlns="http://www.w3.org/2000/svg">
<path fill-rule="evenodd" clip-rule="evenodd" d="M8.5 702C8.1 703.6 3 705.667 0.5 706.5V941.5L1857.5 977.5L1920.5 852V551C1917.7 551 1914.33 542.333 1913 538C1910.2 545.6 1901.5 552.833 1897.5 555.5H1902L1899.5 557.5C1905.5 557.1 1905.33 557.667 1904.5 558L1902 560C1906.8 558 1906.67 559.5 1906 560.5C1900.4 566.1 1892.67 566.167 1889.5 565.5L1893 567L1892 568H1898.5L1895.5 569.5C1897.9 570.7 1902.5 570.333 1904.5 570C1902.9 573.2 1896.83 575.667 1894 576.5C1894 576.831 1888.06 577.185 1883.56 577.392L1883 576L1889.5 576.5L1886 574.5L1891 574C1886.2 574 1879 571 1876 569.5C1871.6 567.9 1870.17 564.833 1870 563.5C1871.6 565.5 1874.33 565.667 1875.5 565.5L1873.5 563.5H1877.5C1872.7 562.7 1866.17 550.5 1863.5 544.5C1861.1 552.1 1851.83 559.667 1847.5 562.5L1852 562L1851 564C1857 562.8 1855.17 564.5 1853.5 565.5H1850.5C1845.7 564.7 1838.5 560.5 1835.5 558.5C1832.7 557.7 1832.67 555.5 1833 554.5C1833.8 555.7 1836.33 556.667 1837.5 557L1838.5 554C1839.7 556 1843.33 556.167 1845 556C1843.8 555.6 1843.5 554.167 1843.5 553.5H1852L1848 551L1854.81 550.199C1855.5 550.199 1856.08 550.139 1856.5 550L1854.81 550.199C1851.48 550.2 1845.53 548.827 1842.5 548C1838.5 547.2 1833.83 544.667 1832 543.5H1837L1836 542L1842.5 542.5L1840 540C1842 541.2 1845.83 540.833 1847.5 540.5L1843.5 538H1847.5C1832.7 534.8 1827.67 529.667 1827 527.5C1827.8 528.3 1831.33 528.833 1833 529L1830.5 526L1835.5 527.5C1829 521 1820.67 510.167 1820 505.5C1816.4 513.1 1809.33 523.167 1805.5 526H1810L1807 527.5L1813 526.5L1809 530H1813L1812.5 532C1811.84 532.989 1809.21 533.82 1806.91 534.548C1806.42 534.703 1805.94 534.854 1805.5 535L1797.5 536.5L1802 537L1801 538H1806L1803.5 539.5C1806.3 540.7 1811 540.333 1813 540C1810.6 543.6 1803 546.167 1799.5 547L1791.5 548.5L1798 549.5L1796.5 552C1798.5 550.8 1802.67 549.833 1804.5 549.5L1802.5 552C1804.1 552.8 1808.17 552 1810 551.5C1807.2 555.5 1798.5 558.833 1794.5 560C1792.89 560.804 1789.55 561.204 1786.66 561.38C1786.25 560.475 1786.05 559.632 1786 559H1790.5L1789 557.5L1794.5 558L1791.5 556L1794 555.5C1787.2 554.3 1782.17 548.333 1780.5 545.5L1784 546L1783 544.5H1785.5C1781.5 541.3 1777.17 531.167 1775.5 526.5C1773.9 533.3 1767.83 540.333 1765 543H1768.5L1766 544.5L1770 545.5L1768.5 547C1773.7 546.6 1772.33 547.833 1771 548.5C1768.2 552.1 1761.83 553 1759 553L1763 554L1762 555.5L1766 555L1764.5 557C1765.7 557.8 1769.33 557.333 1771 557C1770.2 557.8 1768 560.333 1767 561.5C1765.4 562.3 1762.67 562.167 1761.5 562L1758 560L1753 557.5C1749 555.9 1752.33 555.833 1754.5 556L1753.5 555L1758 554.5L1757 552.5H1761.5L1759 551L1762 550.5C1754.8 548.9 1750.67 545.167 1749.5 543.5C1745.5 539.5 1748.83 540.5 1751 541.5L1750.5 540L1753 539.5L1751 538L1753 537.5C1748.6 535.9 1744.83 527.167 1743.5 523C1740.7 531 1735.67 536.333 1733.5 538H1736L1734 539.5L1738 540L1736 541.5C1740.4 541.5 1739.5 543.5 1738.5 544.5C1734.9 548.1 1730.33 548.667 1728.5 548.5C1728.5 549.3 1731.83 550.167 1733.5 550.5L1731.5 552.5H1738C1735.6 557.3 1731.33 558.833 1729.5 559L1723 560.5C1723 561.7 1726.67 561.667 1728.5 561.5L1726.5 564L1731.5 562.5L1730 565L1736 564.5C1734.8 567.7 1730.5 567.167 1728.5 566.5C1724.1 565.7 1716.67 562.167 1713.5 560.5C1715.9 560.9 1720.83 559.667 1723 559L1721 557.5H1728.5L1725 556L1729.25 555.528C1722.87 556.15 1714.12 550.461 1710.5 547.5C1704.9 543.9 1710.17 544.667 1713.5 545.5L1712 544L1716 545C1708 539.4 1703.67 530 1702.5 526C1700.5 531.6 1692.33 539 1688.5 542L1692 542.5L1689.5 544L1694 545L1691 546.5L1696 547.5C1694 551.5 1684.17 553.167 1679.5 553.5L1682 554.5L1687.5 555.5L1685 557.5L1694 557C1692 560.2 1685.17 563 1682 564L1672.5 565.5L1679.5 566.5L1677.5 569.5L1685.5 566.5L1683.5 569.5C1685.5 570.3 1689.33 569.5 1691 569C1686.6 574.2 1677.5 576.5 1673.5 577C1671.1 576.6 1665.5 572.167 1663 570L1668.5 571L1665.5 569L1670.5 569.5C1663.7 567.5 1658.67 556.333 1657 551C1654.2 557.8 1645.83 564.833 1642 567.5H1646L1642.5 569.5L1648.5 570L1645 572H1650.5C1647.7 575.6 1639.33 577.833 1635.5 578.5L1642 580L1639 582L1648.5 582.5C1646.9 584.5 1639.83 587.667 1636.5 589L1628 590.5H1634.5L1632.5 594.5L1640 591.5L1638 594.5C1640.8 595.3 1644.5 594.167 1646 593.5C1640 599.5 1630.5 602 1626.5 602.5C1624.5 602.5 1621.33 600.5 1620 599.5L1625 600L1624 598.5H1631L1628 596.5L1635.5 597C1629.5 595 1620.33 588.167 1616.5 585L1622.5 586L1620 584H1624C1616.4 579.6 1611.5 569.5 1610 565C1606.8 572.6 1598.33 579.833 1594.5 582.5H1599L1596 584L1602.5 584.5L1599 586C1605 585.2 1604.5 586.333 1603.5 587C1602.7 588.2 1599.5 589.833 1598 590.5C1595.2 592.1 1587.95 592.167 1584.68 592C1579.51 589.324 1576.47 586.03 1575.5 584.5L1580 585.5L1579 584L1582.5 584.5L1579.5 582.5H1582C1576.8 581.7 1570.83 571.167 1568.5 566C1568.9 569.2 1558.67 578 1553.5 582L1557.5 582.5L1555 584L1560 585L1557 586L1561.5 587C1556.3 592.6 1549 592.667 1546 592L1549.5 593.5L1548.5 594.5H1553L1551.5 596.5C1553.5 597.3 1558 597.167 1560 597C1558.4 599.8 1551.33 602.5 1548 603.5L1539.5 605L1546.5 605.5L1544 608.5C1546 608.5 1550.17 606.5 1552 605.5L1550 608.5C1551.2 608.9 1553.83 609 1555 609C1557.8 607 1557.83 608.167 1557.5 609C1555.1 613 1544.5 616 1539.5 617L1529.86 619C1527.23 617.043 1524.75 615.018 1523 613.5C1524.6 614.3 1527.33 613.833 1528.5 613.5L1526 611.5L1531 612.5C1523.8 610.1 1518.67 598.833 1517 593.5C1515 601.5 1505.17 608.167 1500.5 610.5H1506L1503.5 612.5L1508 613.5L1505.5 614.5L1509.5 615.5C1504.3 619.9 1497.33 621 1494.5 621L1498 622L1496.5 622.5L1502.5 623.5L1498.5 624.5L1508 625.5C1506.4 628.7 1499.67 631.167 1496.5 632L1487.5 633.5L1494.5 634.5L1491.5 638L1500 634.5L1497.5 637.5C1499.5 637.9 1502.33 637.333 1503.5 637C1506.3 636.2 1506.33 636.667 1506 637L1504 639C1500.4 641.4 1493.5 643.333 1490.5 644C1486.9 644 1479.33 640.667 1476 639C1471.6 637 1475.5 636.833 1478 637L1476 636H1481L1480 634.5H1486L1481 632L1485.5 631C1479.9 631 1474.5 626.333 1472.5 624C1469.7 622 1471.33 621.5 1472.5 621.5H1476L1473.5 620L1476 619.5C1471.2 617.9 1467.33 607.833 1466 603C1464.4 610.2 1458.67 617 1456 619.5L1459 619L1457.5 621.5L1461.5 621L1459 623.5C1465.4 621.9 1463.67 624.167 1462 625.5C1458.8 627.9 1453.33 629.167 1451 629.5L1454 631L1452 632H1456.5L1455 633.5H1460C1464.8 631.9 1456.67 637.5 1452 640.5L1446 642L1452 643L1450 646L1456 643L1455 647C1459.4 643.4 1459.5 644.833 1459 646C1457.8 651.6 1445.74 655.08 1439.85 656.12C1439.26 655.691 1438.8 655.3 1438.5 655C1434.5 653 1438.17 653.5 1440.5 654L1439.5 652.5H1443.5L1442.5 650L1447.5 651L1444.5 649L1447.5 648.5C1441.1 647.3 1435.17 641 1433 638L1437.5 640L1435 637L1438.5 638C1432.9 634.4 1430.17 623.167 1429.5 618C1427.9 625.2 1421.5 633 1418.5 636H1421.5L1419 638H1422.5L1420 640.5L1422 640C1428.4 638.4 1422.67 642.667 1419 645L1412.5 647L1419 648.5L1416 650C1417.6 650.8 1422 650.333 1424 650C1419.2 656.8 1411.67 658.5 1408.5 658.5L1414 659L1412.5 663L1418.5 659L1416 663C1418 663 1420.83 662 1422 661.5L1417.5 666.5C1413.5 670.5 1407.83 671.5 1405.5 671.5C1401.9 670.3 1403.67 669.667 1405 669.5H1408.5L1407 667L1412.5 668L1409.5 665.5L1411.5 665L1402.5 660.5C1397.3 656.1 1398.67 655 1400 655H1403.5L1400 653L1402.5 652.5C1398.5 651.3 1395.17 640.667 1394 635.5C1393.6 642.3 1386.17 649.667 1382.5 652.5H1387L1383.5 655H1388L1387 656.5C1391 656.1 1389.67 657.667 1388.5 658.5C1386.5 660.5 1380.67 662.333 1378 663L1383.5 665.5L1381.5 667H1388C1385.2 672.2 1377.5 675.167 1374 676H1379L1377 679L1382.5 677L1382 680.5L1387 678.5C1386.6 680.9 1380.17 685.167 1377 687C1377.8 687 1371 688.333 1367.5 689C1370.3 690.6 1375 690.667 1377 690.5L1374 693.5L1380 692.5L1378.5 695C1379.3 695.4 1382.17 694.167 1383.5 693.5C1383.1 695.1 1381 696.167 1380 696.5C1373.2 696.1 1366.5 692.333 1364 690.5C1360.8 690.9 1358.67 687 1358 685L1364 687L1363.5 685L1371.5 687L1369 684.5L1378.5 684L1374.5 682L1381.5 680.5L1372.5 679.5C1371.3 679.9 1363.67 677 1360 675.5C1354.8 673.1 1359.83 673.833 1363 674.5L1362 673L1368.5 674L1367 671L1374.5 671.5L1369.5 669.5L1374 668.5C1368 668.9 1358.5 663.333 1354.5 660.5C1350.9 657.7 1356 659.333 1359 660.5L1358 658.5H1361.5L1358 656L1360 655C1354.8 656.2 1349.5 645.5 1347.5 640C1346.3 645.6 1336.33 653.333 1331.5 656.5L1336.5 656L1333.5 658.5H1339L1336.5 660.5C1347.3 657.7 1339 662.667 1333.5 665.5L1324 667L1328 668L1326.5 669.5H1332.5L1329 671H1339C1330.2 678.2 1321 679.333 1317.5 679L1325 680.5L1323 683.5L1331 680.5L1328 683.5C1329.2 684.3 1333.83 683.167 1336 682.5L1335.5 684L1323 690.5C1319.8 691.3 1318 690.167 1317.5 689.5L1320.5 689L1315.5 687.5C1307.5 685.9 1303.17 681.167 1302 679C1303.6 680.2 1306.67 680.5 1308 680.5L1305.5 677.5L1309.5 679C1301.9 674.2 1297 664 1295.5 659.5C1292.7 667.1 1283.67 674.667 1279.5 677.5H1284L1281 679L1286.5 679.5L1284.5 681C1289.3 680.6 1289.17 681.5 1288.5 682C1286.9 683.6 1282.5 685.333 1280.5 686L1272.45 686.447L1271.5 685.5H1277.5L1275 684L1280.5 683.5L1275 683C1266.6 681.8 1260.17 675.833 1258 673C1258.8 673.8 1262.33 674.667 1264 675L1262.5 673H1266L1262.5 671.5L1265 671C1257 668.2 1253.33 658.833 1252.5 654.5C1248.5 661.7 1240.17 669.167 1236.5 672L1241 671.5L1239.5 673C1244.3 672.6 1244.17 673.5 1243.5 674L1240.5 675.5H1244C1249.2 674.7 1243.83 677.5 1240.5 679C1238.1 680.6 1231.5 681.333 1228.5 681.5L1232.5 682.5L1231.5 683.5L1237 684L1234 686H1240.5C1248.9 684 1238.67 689.167 1232.5 692H1229L1231 693H1222.5L1224.5 694L1222.5 694.5L1229.5 695L1227 698L1231.5 696.5C1234.3 694.5 1235.67 695 1236 695.5L1233.5 698.5L1238.5 698C1242.1 696 1241 697.833 1240 699L1233 703C1232.6 703.8 1230.5 703.667 1229.5 703.5L1228.5 703C1224.1 701.8 1218.33 697.167 1216 695C1217.2 695.4 1220.17 695.5 1221.5 695.5L1219.5 694L1223 693.5L1220.5 692.5L1221.5 692C1216.7 691.2 1211.5 680.667 1209.5 675.5C1209.5 676.7 1207.17 680 1206 681.5C1204.8 683.1 1202.5 682.833 1201.5 682.5C1193.5 680.9 1188.5 675.5 1187 673C1189.4 675 1192 674.833 1193 674.5L1190.5 672.5L1195 673.5C1187.4 669.5 1182.83 658.833 1181.5 654C1180.3 660.4 1170 668.667 1165 672H1170L1166.5 673L1173 673.5L1170.5 675C1181.3 676.6 1171 677 1164.5 677L1165.5 678H1162C1156 678.8 1148.17 672.333 1145 669C1147 671 1152.17 671.167 1154.5 671C1151.7 670.6 1151.33 668.167 1151.5 667C1153.1 668.6 1157.83 669.667 1160 670L1157 666.5L1164 666L1153.5 664.5C1148.7 663.7 1144.17 659.5 1142.5 657.5C1144.1 658.7 1149.5 658.667 1152 658.5C1151.2 658.5 1150 656.833 1149.5 656H1155L1154 655L1156.5 654C1153.7 654 1147 651.667 1144 650.5C1137.2 647.3 1142.83 647.5 1146.5 648L1143 645L1148 645.5L1145 643L1150 643.5C1144 641.9 1136.83 631.5 1134 626.5C1134.4 632.9 1125.5 642.167 1121 646L1125.5 645L1123.5 648L1129 646.5C1125.4 652.1 1112.5 655.5 1106.5 656.5L1111.5 657.5L1108.5 659H1116L1113.5 661L1119.5 660.5L1119 662H1124L1123 663C1119 666.2 1108.67 668 1104 668.5C1101.6 667.7 1101.33 665.5 1101.5 664.5C1102.7 665.7 1105.33 665.667 1106.5 665.5C1105.7 665.1 1105.17 663.333 1105 662.5C1105.8 663.3 1109 664.167 1110.5 664.5L1108 662L1113.5 661.5L1108.5 661C1105.3 661.4 1100.5 655.5 1098.5 652.5C1100.5 653.3 1104 653.5 1105.5 653.5L1104.5 652.301L1103.5 651H1107.5L1106.5 650L1108.5 649.5C1102.9 649.1 1098.83 645 1097.5 643L1101 642.5C1100.2 642.5 1099 641.167 1098.5 640.5H1102.5L1100.5 639L1103.5 638.5C1100.3 637.7 1095.17 628.167 1093 623.5C1093.4 627.9 1087.17 637 1084 641L1087 640.5L1085 643L1088.5 642.5C1085.3 648.5 1077.83 651 1074.5 651.5L1078.5 652.301L1075 654L1080.5 654.5L1078.5 656H1083.5L1083 657L1086 657.5C1080.8 661.5 1074.17 662.833 1071.5 663C1067.9 662.2 1066.33 658.667 1066 657C1069.2 658.6 1072.33 658.667 1073.5 658.5L1071 656H1075L1074.5 655L1076 654.5C1070 653.3 1066.17 649.333 1065 647.5C1066.6 648.3 1068.33 647.833 1069 647.5C1067.4 647.1 1067 646 1067 645.5C1067.8 646.3 1070 645.833 1071 645.5C1070.2 645.1 1068.67 643.333 1068 642.5L1072 644C1067.6 641.2 1062.83 631.5 1061 627C1061 631.4 1055 641.5 1052 646L1054 645.5L1053.5 648C1057.9 644.8 1056.67 647 1055.5 648.5C1053.5 652.9 1046.67 655 1043.5 655.5L1045 656L1042 657L1045 657.5L1043 659.5L1048 658.5L1047.5 661C1052.3 659 1051.5 660.833 1050.5 662H1047.5C1036.3 660.8 1029.17 654.833 1027 652C1028.6 653.6 1032.67 653.667 1034.5 653.5C1030.9 649.9 1032.67 650 1034 650.5L1041.5 653.5L1038 650L1045 649C1039.4 649 1032.67 646.667 1030 645.5C1025.2 643.9 1024.33 641.167 1024.5 640C1026.9 641.6 1031.17 640.667 1033 640C1029.8 638.8 1031.33 638.833 1032.5 639H1036.5L1035.5 638L1038 637.5L1036.5 637L1038 636.5L1032.5 636C1029.7 635.6 1026 633.5 1024.5 632.5C1018.9 630.1 1024.5 630.167 1028 630.5L1024.5 628L1030 628.5L1026.5 626L1032 627C1025.6 625 1018.33 614.167 1015.5 609C1016.3 613.8 1007.17 624.667 1002.5 629.5L1006 628L1004.5 630.5L1008 630C1010.8 628 1009.83 629.833 1009 631C1005.4 634.2 998.5 637 995.5 638L989.5 640L992.5 640.5L988.5 642.5L997 641.5L994.5 644H1000C1008 644 1003.33 646.333 1000 647.5L990.5 650L979.5 652L988.5 653L984 655H994L992 658L999.5 655.5V658L1004.5 656.5C1000.5 661.3 993.167 664.5 990 665.5C985.2 667.5 982 665.667 981 664.5H987L983.5 662L989 663C982.6 660.2 975.667 650.167 973 645.5C972.2 652.3 964 661.333 960 665L963 664.5L962.5 667L967.5 665.5C964.3 669.9 956.167 673.333 952.5 674.5L946 675.5L950 676.5L944.884 679.756L944.5 679.5L946 678.5C939.2 677.7 933.833 672.167 932 669.5C933.2 670.3 939.167 670.833 942 671L939 668.5H944.5L943 667.5L947 666.5C935.8 666.1 931.667 662 931 660H935.5L932 657.5H936.5L934.5 655.5L936.5 654.5C934.5 654.9 927 644.667 923.5 639.5C921.9 647.5 914.5 655.833 911 659L914 658L913 660L917.5 659.5C915.9 662.3 907.167 666.667 903 668.5H898L902 669.5L897 672L905 671L903.5 673.5L909 673V674.5L912 675.5C909.6 677.1 904.333 678.833 902 679.5C901.2 679.5 899 676.167 898 674.5C898.4 679.3 889.833 689.5 885.5 694L888.5 693L887.5 695C895.1 691.8 891.667 695 889 697L881.5 697.5C889.9 698.3 882.667 701.167 878 702.5L871 703.5L875.5 705L869.278 706.778L868.5 706H870.5L869 705L859.5 701C853.1 697 855.5 697 857.5 697.5H864.5L861 695L867.5 696L866 694L869 693.5C858.6 692.7 854.333 688.833 853.5 687H858.5C856.1 686.2 855.5 685 855.5 684.5L861.5 685.5L857.5 682.5L863 683.5C857.4 681.5 849.333 672 846 667.5C844 675.1 836.167 683 832.5 686L837 684.5L835 687L839.5 686.5C836.3 691.3 831.167 692.833 829 693L821 695L824.5 695.5L819.5 697.5H827.5L825 700L831.5 699L830.5 700.5H832.5C836.1 699.7 836.333 701.5 836 702.5H832.5L826.5 703.5L828 705H823.5L820 700.5C818.4 707.7 812.667 713.833 810 716L807 720L810.5 718.5L810 720.5C816.8 719.3 813.833 721.667 811.5 723L803.5 723.5C810.7 724.7 803.833 727.667 799.5 729L793 730L797.5 730.5L794.286 731.929L791.5 731C787.9 730.6 782 727.5 779.5 726C775.5 722.8 777.5 722.667 779 723L786.5 723.5L783 721L789.5 721.5L788 720L791.5 719C782.7 719.4 776.833 715.5 775 713.5L781 713L777 711H783L779 709L783.5 709.5C778.7 707.9 771.5 697.833 768.5 693C765.7 700.6 758.667 708.833 755.5 712L758.5 711L757.5 713C762.7 711.4 762.333 712.333 761.5 713C759.1 716.6 748.167 722.5 743 725C740.6 725.8 736.333 726.333 734.5 726.5L738 727.5L734 729.5H742L740 731.5L746.5 731L745.5 732.5H750C748.8 734.1 744.833 734.5 743 734.5C740.2 734.5 735.833 732.167 734 731C729.2 729.8 726 726.5 725 725C727.8 726.2 731.833 726.5 733.5 726.5L733 726L731.5 723.5L738 724.5L736.5 723L743.5 722C736.3 722 728.5 718.333 725.5 716.5C717.5 712.9 726.5 713.333 732 714L729 712L735 712.5L733.5 711L736.5 709.5C726.9 709.1 721.833 705.667 720.5 704L726 703.5L722 701.5H729L724 699L729.5 700C723.5 698.4 716.333 688 713.5 683C712.3 689 707.333 695.167 705 697.5L700 702L704 701.5L702.5 704L708 703C704.4 707 697.167 708.667 694 709C685.2 707.4 681 702.333 680 700C682 702 686.167 701.833 688 701.5C686.4 700.3 685.667 698.667 685.5 698C686.7 699.2 691.667 700.833 694 701.5L690.5 698L697.5 697C690.7 696.6 685.667 694.833 684 694C678 691.6 676.833 689.333 677 688.5C679 689.7 683.833 689.667 686 689.5L683 687H689.5L687.5 686L691 685.5C685.8 684.7 679.833 682.5 677.5 681.5C671.5 678.3 677 678.167 680.5 678.5L677 676L682.5 676.5L678.5 674L682 673.5C677.6 673.1 670.5 664 667.5 659.5C665.9 668.3 658.5 674.833 655 677L658.5 676.5L658 678.5C663.6 676.1 663.333 677.5 662.5 678.5C657.3 683.3 651 685.5 648.5 686L642 687.5L646 688L643 689.5H649.5L648 692L653.5 691.5L653 693L657.5 693.5C655.5 695.1 652 696.167 650.5 696.5C645.3 698.5 639.333 698.667 637 698.5C633.8 696.1 635 695.833 636 696C637.2 696.8 639.833 697 641 697L639.5 694L645 696.5L642 693.5C642.8 693.9 644.333 694 645 694C645.8 694 647.667 693 648.5 692.5H647C644.2 692.5 641.167 691.833 640 691.5C635.2 689.1 633.333 685.5 633 684C634.2 685.2 637.5 684.5 639 684L636.5 682H641.5L640 681.5L643 680.5L638.5 680C632.9 677.6 631.833 674.667 632 673.5L636 674C634 673.2 633.167 671.667 633 671L637 672L634.5 669.5L638 670C634.4 668.8 629.167 658.5 627 653.5C627.8 658.7 621.333 668 618 672H620.5L619.59 674.5L622.5 673.5C620.1 677.1 615.833 680.333 614 681.5L608 683H611.5L610 684.5C602.8 683.7 599.667 680.167 599 678.5H603L601 676.5H605L602 674L606.5 674.5C601.7 673.3 596.833 663.333 595 658.5C593 665.7 589.167 671.5 587.5 673.5L585 677H587.5V680L590 678.5C586.8 683.3 582 685.5 580 686L576 687.5H579L577.5 690.5L582 689V691.5H585V693.5L577.5 692.5C569.9 690.5 563.333 685 561 682.5L569.5 684.5L566.5 681L576 684.5L573 681L580 680L571.5 678.5C566.3 678.5 560.667 673.833 558.5 671.5L568.5 672.5L564.5 671L570.5 669.5H567.5L573 667H564.5C558.1 665 556.5 661.833 556.5 660.5C557.7 661.3 560.667 661.5 562 661.5L558 658.5L564.5 659.5L560 656.5L565.5 657.5C559.5 655.1 552.333 645.5 549.5 641C546.7 649 541.667 654.667 539.5 656.5L536 660.5L540.5 659.5L538.5 661.5H543.5C539.1 665.5 531.333 668.5 528 669.5L523 671H526.5L523 673.5L531 672.5L529.5 674.5H536L535 676L538.5 677C537.7 678.2 528.5 680.167 524 681L514.5 682.5L523 683.5L518.5 686H528L526.5 689L533.343 687.5L535 689L539.5 687.5C537.9 689.5 527.833 694.667 523 697C517.8 697.8 516.167 696.667 516 696L521 695L517.5 693.5H523C517 691.5 509.833 681.667 507 677C503.8 685.8 498 691.667 495.5 693.5L493.5 696L497.5 695L495.5 698L501.5 697C499.9 699.4 492.5 703 489 704.5L480 706.5L484.5 707.5L481 710L489 708.5L487 711L493.5 710L491.5 712L495.5 713C493.1 715.4 480.833 717.333 475 718C468.2 713.2 469.5 712.667 471 713C473.4 714.6 476.667 714.667 478 714.5L476 711L483.5 713L478 708.5L466.5 702H476L473.5 699L480 700.5L478 699L482 697H476C465.6 694.2 464.333 691.5 465 690.5L470 691.5L466.5 687.5L471 689L468 686L473.5 687.5C468.7 685.1 460.833 675.5 457.5 671C454.3 679 449.5 684.333 447.5 686L445 689H448.5L447.5 690.5H452.5C446.9 695.3 440.833 698.167 438.5 699H429.5L436 700.5L431 702.5L439.5 702L437.5 704.5L444 703.5L443 705.5L447.5 706.5L435 710L431.5 705.5L429.5 711L423 713C429.8 712.2 429.167 714.667 428 716L418.5 724.5H420C429.6 724.1 426 726.667 423 728L414.5 728.5L418.5 731C409.3 735 402.333 735.333 400 735C391.2 731.8 389.333 729 389.5 728L398.5 728.5L396 726L401.5 726.5L400.5 725L404.5 724H403.5C392.7 724 388 720 387 718L392 717L388.5 716H395.5L392 714.5H396.13C396.439 714.552 396.73 714.554 397 714.5H396.13C391.853 713.779 384.075 703.44 380.5 698C378.5 704.8 372 711.833 369 714.5L367.5 717L371 716L369.5 719L375 717L371 721.5C367.8 723.5 360 724.333 356.5 724.5L363 726H359.5C359.5 727.2 364.167 728.833 366.5 729.5L356.5 732.5L361 733.5L358 737L363 735V738.5L366.5 737L367.5 739.5C359.5 744.3 352.833 745.167 350.5 745C340.9 742.2 338.167 738.5 338 737L346 738.5L344 735L352 738.5L347.5 735L354.542 733.592C354.701 733.567 354.854 733.536 355 733.5L354.542 733.592C351.217 734.107 345.204 732.113 342.5 731C335.3 727.8 334.167 725.333 334.5 724.5L344 726L342 724L348.5 724.5L346 723L348.5 721.5C338.1 721.1 333.833 717.667 333 716L338 715L334.5 713.5H340.5L336.5 710L338 711L340.5 712L342.5 711C336.9 710.2 328.833 700.333 325.5 695.5L320.5 706.5L312.5 713.5H316.5L314.5 715H320.5L314.5 719C304.9 719 298.5 717 296.5 716C291.3 715.2 287.333 711.667 286 710V708L288 710L293 709C289 706.6 291.333 706.333 293 706.5L299.5 709L296.5 706.5L304 705.5C300 705.9 295 704.333 293 703.5C286.6 701.9 283.667 698.5 283 697L292 698L289.5 695.5H295.5L293 694.5L296.5 693H292C285.2 691.8 281.833 688.5 281 687H286L283 684.5L289.5 685.5L285 682.5H289.5C281.9 676.9 275.333 670.167 273 667.5C271.8 673.9 268.167 678.5 266.5 680L260.5 685L265 684.5L262.5 686.5H269L265 689.5C260.2 693.1 255 693.333 253 693C252.121 692.92 251.288 692.81 250.5 692.674C243.393 691.448 239.9 688.15 239 686.5L245 687L241.5 684.5L247 685L244.5 682.5L249 683.5L242 678.5C238.4 675.3 234.167 669.833 232.5 667.5L230 673C227.6 677.8 221.333 683.333 218.5 685.5L222 685L221 686.5H226C221.6 691.7 214.833 693.667 212 694L207 696H210L207 699L213.5 698L212 700H218V701.5H222C217.2 705.1 212.333 703.667 210.5 702.5C205.7 700.9 199.833 697.167 197.5 695.5V694L205 695.5L202.5 692L210.5 694.5L208 692L215 691L205 689.5C199 687.5 195.5 684 194.5 682.5H205L201 681H207L205 680L209 678.5H202.5C197.7 676.9 193.833 674.167 192.5 673H198L194.5 670L201 671L197 667.5L202.5 669C192.9 662.6 187.167 655.333 185.5 652.5C182.3 661.3 177.5 666.167 175.5 667.5L172 671H176L174.5 673L180.5 671C177.7 674.2 171.667 677.333 169 678.5C165.8 678.1 160.667 675.667 158.5 674.5C151 673 152.5 668 152.5 669C152.5 669.8 155.833 670.667 157.5 671L160 670L158.5 667L166 670L163 667L169 666C163 665.2 156.5 663.333 154 662.5C146.8 658.9 148.333 657.667 150 657.5L158.5 658.5L155.5 656L163 654C151.8 653.2 147.667 649.667 147 648L152.5 647.5L149 644.5L154 645.5L151.5 643H155.5C149.5 640.2 142.667 631.833 140 628C138.4 633.2 135 638.5 133.5 640.5L127 645.5H130.5V647.5C135.7 644.7 134.667 646.667 133.5 648C131.5 650.8 123.667 653.833 120 655L113.5 657L116.5 657.5L115 658.5L121.5 658L120 661H125V662L128.5 662.5C126.1 664.1 118.5 666.167 115 667H109L107 665.5L108 664L112 665.5V662.5L116.5 665.5L113.5 662.5L119 661C114.6 661.4 112.5 660.167 112 659.5C107.2 657.5 105.333 654 105 652.5H112L110 651L115 649L110 648C106.8 648 104.667 644.667 104 643H108L105 640.5H109L107 639L108 638C104 632.8 100.667 626.5 99.5 624C97.5 630 92.3333 637.833 90 641L92.5 641.5L91.5 643H95L85 651H79.5L83.5 652.5L82 654H86L85 656H89.5V657L91.5 658C90.3 659.2 84.6667 661.5 82 662.5C79.2 662.9 77.5 662.333 77 662L73 657.5H78.5L77 656L81.5 654C75.5 652.4 72 649 71 647.5H75.5L73 645.5H77L74 643L78.5 643.5C76.1 642.7 73.8333 640.167 73 639C71.4 636.6 68 631.333 66.5 629C66.1 631 64.3333 634.833 63.5 636.5C61.5 641.3 59 644.5 58 645.5H59.5V648H62C58.8 651.6 55 654.167 53.5 655H52L48.5 657L50.5 657.5L49 659.5L53.5 658.5L52.5 661L54.5 660.5C58.1 659.971 57.3333 661.28 56.5 662H53.5C42.3 659.6 36.1667 655.667 34.5 654C29.7 650.8 35.5 652.667 39 654L41 653.5C35.8 649.5 38.8333 650.167 41 651L47.5 653.5L44 650L52 649C43.6 648.2 38.1667 646.333 36.5 645.5C28.9 641.9 29.3333 640.333 30.5 640C31.7 640.8 35 641.333 36.5 641.5L39.5 640.5C36.3 638.9 37.1667 638.833 38 639H43L41.5 638L45 636.5C39.8 636.5 37.1667 635.833 36.5 635.5C30.9 634.3 28.8333 631.667 28.5 630.5H33.5L30 628H35.5C30.0879 625.294 33.1141 625.496 36.2939 626.127C36.8307 626.354 37.4081 626.5 38 626.5C37.4598 626.371 36.8743 626.242 36.2939 626.127C35.017 625.586 33.9693 624.587 33.5 624C28.7 619.6 23.1667 612.833 21 610L17.5 619.5C15.5 622.7 12 625.5 10.5 626.5L8.5 629L12 628L10.5 630.5L16 629.5C10 634.7 2.83333 637.333 0 638V641.5H3.5L1.5 644.5L7 643.5L6 644.5L10.5 645.5L0 649V657L5.5 656V657.5H7L8.5 656L10.5 657L0.5 664V673.5L8.5 671.5C7.3 672.7 2.66667 674.667 0.5 675.5V689L11.5 684.5C9.9 686.1 3.5 689.5 0.5 691V704.5C3.33333 703 8.9 700.4 8.5 702ZM1750.5 566.5C1751.67 568.833 1755.4 574 1761 576L1769 568C1768 568.667 1765.5 569.9 1763.5 569.5L1764.5 566.5L1759.5 569.5L1761 566.5L1758.5 566L1759 568.5L1755 566.5V569.5L1750.5 566.5ZM1833.5 569.5C1833.57 569.577 1833.65 569.658 1833.73 569.743C1833.65 569.663 1833.57 569.582 1833.5 569.5ZM1833.73 569.743C1835.46 571.497 1840.25 574.855 1847.5 576L1849 574C1844.81 573.517 1836.12 572.008 1833.73 569.743ZM1889 600.5L1875 593C1876.2 592.2 1878.83 592 1880 592L1878 594H1885.5L1887.5 593L1884.5 596.5C1888.9 596.5 1891.33 595.5 1892 595L1890.5 597.5C1894.5 597.1 1895.83 596 1896 595.5L1898 596.5L1893.5 600C1890.7 601.2 1889.33 600.833 1889 600.5ZM1580.5 641.5L1582 643H1584.5V641.5H1580.5ZM684 715C685 715.5 687.8 716.6 691 717L690 715H693L692.5 717L699.5 716L698.5 717.5L703.5 717L701.5 719C700.333 719.333 697.7 720.1 696.5 720.5C695.167 720.833 691.9 721 689.5 719C688.5 718.833 686 717.8 684 715ZM652.5 736L649 735V737L642.5 736C643 737 644.2 739 645 739C645.75 738.833 647.6 738.2 649 737L652.5 736ZM652.5 736L657 733L652.5 734V736ZM695.5 734H694V733L693 735H695.5V734ZM1876 606C1877.5 607.5 1880.9 610.5 1882.5 610.5H1885.5L1876 606ZM1882.5 625L1880 623.5L1877.5 621L1879.5 621.5L1880.5 623L1887 623.5V622L1890.5 622.5L1886.5 625H1882.5ZM1853 576L1855.5 574.5L1856 576.5L1853 576ZM1831.5 583.5C1833.67 585.5 1840.1 589.8 1848.5 591C1849.83 590.333 1852.6 588.8 1853 588C1849.4 589.2 1845.83 588.833 1844.5 588.5L1846.5 586C1843.7 588 1840.67 587.833 1839.5 587.5L1841 586.5C1838.2 586.1 1833.5 584.333 1831.5 583.5ZM1849 602.5L1844.5 606.5L1839.5 604.5C1835.5 602.5 1837.83 602.333 1839.5 602.5C1841.5 603.7 1843.67 604 1844.5 604L1849 602.5ZM1797 594L1798 592H1795L1797 594ZM1795 604.5C1791.8 605.7 1789.33 606 1788.5 606L1783.5 601C1785.9 603 1790.17 603.5 1792 603.5L1791 600L1793 602.5L1795.5 603L1797 601H1799V602.5L1795 604.5ZM1761 588C1757.4 587.6 1753.83 584.5 1752.5 583C1754.1 584.6 1757.83 585 1759.5 585L1761 584V585.5H1762.5C1763.7 586.7 1762 587.667 1761 588ZM1727 571H1724.5L1725.5 572L1727 571ZM1719 571L1721.5 572.5L1718.5 573.5L1719 571ZM1720 577.25L1721 578L1729 581.5C1729.17 582 1730.2 582.5 1733 580.5V579L1728 580.5L1729 578L1724.5 579L1726.5 576L1720 577.25ZM1728 591C1728 587 1726.33 588.667 1725.5 590C1723.54 590 1720.35 589 1719 588.5L1716 587.5C1716.8 589.1 1721.33 590.833 1723.5 591.5C1726.3 591.9 1727.67 591.333 1728 591ZM1726.5 607.5C1725.33 607.5 1722.7 607.2 1721.5 606L1718.5 604.5L1721.5 604V603L1722 605L1729 604.5L1726.5 607.5ZM1677 589L1688 583.5L1679 585L1681.5 583.5H1677L1678 585L1671.5 584L1672 586L1668 586.5L1677 589ZM1678 631L1675.5 629.5H1679.5L1678 631ZM1677 602H1674.5V603H1678L1677 601V602ZM1635.5 644H1628.5L1626 642.5L1625.5 644L1630.5 646.5L1635.5 644ZM1623.5 615L1621 612.5C1623 612.1 1625.83 612.333 1627 612.5L1628 611C1629.6 612.2 1632 612.167 1633 612L1631.5 609.5H1638L1640 608L1642.5 609.5L1635.5 612.5H1631.5L1633 614L1631.5 614.5L1623.5 615ZM1634 620.5L1638.32 617.617C1638.38 617.591 1638.42 617.566 1638.45 617.541C1638.47 617.527 1638.49 617.513 1638.5 617.5L1638.32 617.617C1637.7 617.923 1635.75 618.209 1631.5 617.5L1632.5 616H1629L1628 617.5L1630.5 618.5L1634 620.5ZM1628 628V630.5L1623.5 626L1628 628ZM1579.5 612.5L1584 616.5L1598.5 610L1599.5 608H1596L1597 609.5H1590.5L1591.5 611.5C1590.83 611.833 1588.7 612.2 1585.5 611L1585 613L1579.5 611.5V612.5ZM1584 628.5L1581 626.5L1584 627.5V628.5ZM1533 656.5L1528.5 653.5L1531.5 656.5H1533ZM1539.5 659.5L1536 658.5L1540 657.5L1539.5 658.5H1546C1544 660.1 1540.17 660.167 1538.5 660L1539.5 659.5ZM1527 668.5L1533.5 673C1534.5 673.333 1537.2 673.8 1540 673L1539.5 671.5H1542.5L1541.5 670L1539 669L1540 670.5C1538.17 670.833 1533.9 671.2 1531.5 670L1527 668.5ZM1536 690L1528.5 685.5L1538.5 688.5C1537.7 689.7 1536.5 690 1536 690ZM1527.5 640.5L1532.5 644.5C1532.83 644.833 1534.3 645.3 1537.5 644.5L1544.5 642L1541.5 640.5L1542 641.5C1541 641.667 1538.5 641.6 1536.5 640H1532.5L1534.5 641.5L1527.5 640.5ZM1497 655.5C1491.4 657.9 1484.67 657.167 1482 656.5L1474 649.5L1478 650L1478.5 647.5C1480.5 649.5 1482.67 649.667 1483.5 649.5L1482 647L1484.5 647.5L1483.5 648.5H1491L1488 651.5C1492 652.3 1495 651.167 1496 650.5L1494.5 652.5C1497.75 653.092 1499.93 652.261 1501.12 651.384L1497 655.5ZM1502 650.5L1501.12 651.384C1501.53 651.075 1501.83 650.761 1502 650.5ZM1496 660L1498.5 660.5L1493.5 663H1492L1496 660ZM1475 663C1476.17 664.833 1479.2 668.5 1482 668.5L1475 663ZM1473.5 677C1474.67 678.5 1477.3 681.5 1478.5 681.5C1480 681.833 1483.9 682.2 1487.5 681C1489.33 680.333 1493.3 678.9 1494.5 678.5L1487 677.5L1487.5 679.5C1486.83 679.167 1485 678.2 1483 677C1482.5 677.11 1481.8 677.764 1483 679.5C1482.17 679.667 1479.1 679.4 1473.5 677ZM1484.5 700.5C1480.9 699.7 1476.67 696.167 1475 694.5L1482 696.5C1485.6 698.5 1491.83 698 1494.5 697.5C1490.9 700.7 1486.33 700.833 1484.5 700.5ZM1410.5 675.5L1408 674L1412 673.5L1410.5 675.5ZM1408.5 690L1401 682.5L1406.5 683L1405.5 681L1408 683L1406.5 685.5C1409.7 684.7 1411.5 684.167 1412 684L1410.5 686.5C1412.5 686.5 1415.67 685.5 1417 685L1411.5 689.5C1410.3 689.9 1409 690 1408.5 690ZM1409 682H1413L1412 681L1409 680V682ZM1415.5 680H1413L1419.5 676L1415.5 680ZM1401 711L1406.5 716C1406.83 716 1407.8 715.9 1409 715.5L1413 713.5L1412 712H1410.5L1409 710L1410 713.5C1408.5 713.5 1404.6 713 1401 711ZM1442.5 699L1435.5 693.5C1444.3 696.7 1445.83 696.5 1445.5 696V693.5L1448.5 696L1452.5 695.5L1447.5 699C1444.3 700.2 1442.83 699.5 1442.5 699ZM1436.5 679.5L1441 682.5V681L1436.5 679.5ZM1360.5 700.5C1362.9 704.1 1371.5 706.333 1375.5 707L1379 704C1375 704 1371 702.667 1369.5 702L1370.5 704C1368.5 704 1363 701.667 1360.5 700.5ZM1358 714.5C1360.67 716.667 1368.1 721.2 1376.5 722L1378.5 719L1371 719.5L1372 718C1370.33 718 1365.7 717.3 1360.5 714.5H1358ZM1373.5 731.5L1371 733L1368 729L1373.5 731.5ZM954 711.5C955.5 711 958.9 709.5 960.5 707.5L952 710.5L954 711.5ZM1321 700.5L1306.5 696.5L1306 694.5H1310.5L1310 693L1313 694.5L1320.5 695L1318 697C1319 697.5 1322 698.1 1326 696.5L1323.5 698.5C1325.33 698.333 1329.7 697.8 1332.5 697L1329.5 700.5C1327.1 700.9 1322.83 700.667 1321 700.5ZM1306 706.5L1312 711.5C1312.5 711.833 1314.1 712.3 1316.5 711.5L1328.5 706.5L1322 707.5L1321 705L1318 707.5C1316.5 707 1313.2 705.8 1312 705V707.5L1306 706.5ZM1318.5 726.5L1323 725L1315 723.5L1310.5 722.5L1318.5 726.5ZM1262.5 701L1274.5 709L1285.5 703L1281.5 703.5L1276 704L1278.5 700L1270.5 704L1272 702L1269 700V702L1262.5 701ZM1222.5 712L1220 710C1222.8 709.2 1225.5 709.333 1226.5 709.5C1225.94 710.627 1225.2 711.283 1224.5 711.645C1223.7 712.055 1222.94 712.088 1222.5 712ZM1225.31 712L1231 711.645L1230 712.5H1234C1237.2 711.251 1237 712.313 1236.5 713L1234.5 714.5C1233.3 715.3 1231.67 714.833 1231 714.5L1225.31 712ZM1228.5 724L1222.5 723.5L1224.5 725.5L1228.5 724ZM1228.5 724L1228 721L1226.5 720.5V722.5L1228.5 724ZM1274.5 721L1265 715.5L1276 719.5L1278.5 718.5L1277 721C1276.6 721.4 1275.17 721.167 1274.5 721ZM1262.5 730L1268 732V730H1262.5ZM1161.5 680.5L1164 679.5H1169.5L1163.5 681L1161.5 680.5ZM1157.5 685.5L1156 684H1159.5V685.5L1165 685L1164.5 686.5L1171 686L1168 689.5V688.5C1168 688.333 1167.1 688.3 1163.5 689.5C1163.67 689.833 1162.4 690.1 1156 688.5C1154.67 688 1151.5 686.4 1149.5 684C1150.83 684.333 1154.3 685.1 1157.5 685.5ZM1154.5 705C1152.1 704.2 1147.17 702.667 1145 702C1145 700.4 1146 698.333 1146.5 697.5L1150.5 698.5L1149.5 696C1155.1 696 1157.5 697.667 1158 698.5L1157.5 697.5L1168 699C1162.8 703.4 1156.83 704.833 1154.5 705ZM1146.5 710V712.5L1139.5 711.5L1148.5 717.5C1150.17 717.833 1154.3 718.3 1157.5 717.5L1166 712.5H1162.5L1158.5 713L1159.5 711.5L1154.5 712.5L1156 709H1150.5L1154.5 712.5L1146.5 710ZM1191.5 688.5L1195.5 689V687.5L1199 688.5C1197.8 690.5 1195.5 691 1194.5 691C1193.7 691 1192.17 689.333 1191.5 688.5ZM1145.5 727L1142 725.5L1146 728.5L1145.5 727ZM1143 742L1146.5 741.5L1139.5 738.5L1143 742ZM1142 756.5L1146.5 761L1150.5 759L1142 756.5ZM1116.79 678L1106.5 684L1103 680L1108.5 681V679L1112 680L1111 677L1116.79 678ZM1118.5 675L1114.5 673.5L1118.5 672V675ZM1111 672L1108.5 673H1112L1111 672ZM1116.79 690L1122 687L1115.5 692.5C1111.9 693.3 1110 692.833 1109.5 692.5C1106.7 690.1 1109.33 689.833 1111 690C1113 691.2 1115.69 690.5 1116.79 690ZM1108.5 706C1109.07 707 1110.87 708.8 1113.5 708L1114.5 706H1117.5L1115.5 703.5L1114.5 706H1108.5ZM1119.5 703.5L1121 704.5L1124.5 701L1119.5 703.5ZM1042 664L1047.5 665L1045 667H1043.5L1042 664ZM1035.5 668.5L1042 669.5L1040 671L1047.5 672L1045 673C1044.17 673 1041.7 672.8 1038.5 672C1036.67 671.333 1032.6 669.4 1031 667L1035.5 668.5ZM1045 673H1053.5L1046 681L1034.5 676.5C1036.5 676.5 1040.8 676.7 1042 677.5L1041 675L1047.5 676.5L1045 673ZM1037 668V666L1040 667L1037 668ZM1038.5 692.5H1042L1040 694.5L1038.5 692.5ZM1054.5 702L1047.5 707L1038.5 703L1040 702L1042 703.5L1046 702L1045 704.5C1048.2 704.811 1052.67 702.963 1054.5 702ZM1067.5 669.5L1075 676.5C1076 677 1078.3 677.7 1079.5 676.5L1086.5 669.5V668L1082.5 669.5V668L1078.5 669.5V667H1075L1078.5 669.5L1073.5 668L1074.5 670.5L1067.5 669.5ZM1073.5 687L1077.5 685.5L1078.5 687L1084.5 683.5L1083.5 685.5L1079.5 688C1078.3 688.8 1076 689 1075 689L1073.5 687ZM1086.5 697H1084.5L1082.5 699H1084.5L1086.5 697ZM946 702L938.5 697L947.5 699L945 696C947.4 697.6 951.333 697.333 953 697L949.5 694L958.5 695L957 692.5L962 694C957.2 697.6 949.333 700.833 946 702ZM946 723.5L951 726C951.5 726.5 954.1 726.7 960.5 723.5C960.667 723 960.2 722.3 957 723.5H946ZM998 674.5C1001.6 672.9 1003.17 671.167 1003.5 670.5C996.7 672.9 990.333 674.833 988 675.5L990.5 676.5L993 675.5L998 674.5ZM983.5 688.5L988 691.5C988 692 989 692.7 993 691.5C996.5 690.167 1003.9 686.9 1005.5 684.5L996.5 687L998 688.5L990.5 686L993 688.5C991.167 689 986.7 689.7 983.5 688.5ZM988 703.5L996.75 705.812L993 707.5L988 703.5ZM1000.5 704.125L996.75 705.812L996.5 703L1000.5 704.125ZM1000.5 704.125L1003 700.5V703L1000.5 704.125ZM731.5 740.5V742H739L738 744C738.833 744.167 741.1 744.2 743.5 743C744 742.833 744.8 742.9 744 744.5C745.167 744.667 747.9 744.8 749.5 744C749.167 744.667 748.3 746 747.5 746C745 746.167 739.8 746.4 739 746C737.4 747.2 733 743.833 731 742L729 740L731.5 740.5ZM740.5 749.5L733.5 749C734.3 750.6 736.833 751.667 738 752L740.5 750H742.5L742 749L739.5 748L740.5 749.5ZM747.5 758L743 760V761.5L746.5 759.5L747.5 758.5V758ZM781.5 749L774.5 755C772.1 755 770.5 752.333 770 751H775.5L771.5 748C774.3 749.6 776.667 749.333 777.5 749L774.5 746L780 748L782.5 746L781.5 749ZM784 750C785.667 751.667 790.1 755 794.5 755C795.5 755.333 797.5 755.5 797.5 753.5L796.5 752H804C804.5 751.333 804.5 749.9 800.5 749.5L808.5 749C809.5 748.333 810.6 747 807 747L804 748V746C803.167 746.667 800.1 747.8 794.5 747L797.5 750L790.5 749L792 751L784 750ZM802.5 780L809.5 775L797.5 778V776C793.5 776 792.833 777.333 793 778L802.5 780ZM804 763.5L808 761V762.5L804 763.5ZM887 733.5L881.5 738L885.5 736.5L887 733.5ZM886.57 749.391C883.622 751.834 878.037 752.159 875.5 752V749.5L872 752C876.8 754 880.333 754.167 881.5 754L886.57 749.391ZM887 749C886.864 749.136 886.721 749.266 886.57 749.391L887 749ZM879.5 770.5L872 772.5L869 769.5L879.5 770.5ZM646.5 703H644V704H646.5V703ZM649 704L652 703V705L649 704ZM637.5 711C638.167 712.333 640.1 714.7 642.5 713.5L646.5 711.375L658.5 705H654.5L653.5 707H650V708.5H645L646.5 711.375L642 710L642.5 712C642.1 712.4 639 711.5 637.5 711ZM655.5 718L650 721C648.4 722.2 646 722.167 645 722C643.4 720.1 643 721.875 643 723C643 723.8 645.333 724.333 646.5 724.5C648.5 724.1 652 722 653.5 721L655.5 718ZM581 696C579.833 696 577.1 695.8 575.5 695C575.667 696 576.3 698 577.5 698C578.5 697.667 580.6 696.8 581 696ZM583 707L579.5 705H587.5L582.5 710.5C578.9 713.3 576.333 712 575.5 711C572.3 710.2 569.167 707.333 568 706L577.5 708L575 706L583 707ZM577.5 704.768C571.54 703.742 566.452 699.952 564.5 698L574.5 700.5C577.3 700.1 575 702 573.5 703H579.5L577.5 704.768ZM579.5 735.5C581 735.667 584.9 735.2 588.5 732L583 738L571.5 734.5C571.5 733.5 571.9 731.8 573.5 733L575.5 734.5H578.5L579.5 732V735.5ZM575.5 724.5V726H573.5L573 724L575.5 724.5ZM608.5 701.5C606.833 701.333 603.2 701 602 701L608 707C609 708 611.6 709.4 614 707L620 700.5C620.333 699.667 620.4 698.5 618 700.5L616.5 701V699L611.5 701L611.667 700.5L612.5 698H609.5L611.667 700.5L607.5 699L608.5 701.5ZM611.667 719C608.6 720.6 607.611 719 607.5 718L610.5 717.375H611.667L615 716.5C617.667 714.5 618.778 714.667 619 715C616.6 718.2 613.111 719 611.667 719ZM473 728.5L480.5 733L496 725L491.5 723.5L492 725.5L483 725L487 728C485.5 728.167 481.9 728.2 479.5 727L481.5 729.5C479.167 729.333 474.2 728.9 473 728.5ZM489 742H486.5L487 740.5L495 738.5L489 742ZM492 752.5L490.5 754.5H480.5L485.5 757H489L494.5 753.5L492 752.5ZM523.5 708L522 706.5L526.5 704.5C530.1 704.1 534.667 702.333 536.5 701.5L537 702.5L531.5 706.5H527L523.5 708ZM526.5 720.5C524.667 720.667 520.4 720.6 518 719L521 723C522 723.167 524.4 723.3 526 722.5L538 717L539.5 715L531 718.5L528.5 719L524 716.5C524.167 717.549 524.9 719.817 526.5 720.5ZM530 737.5C526.8 738.7 523.333 736 522 734.5L526.5 735.5C528.167 735.833 531.2 736.1 530 734.5C533.6 733.7 533.833 734.833 533.5 735.5L530 737.5ZM312 720H308V721H309.5L312 720ZM306.5 723.5V721H299.5L302.5 723.5C301.667 723.833 299.2 724.3 296 723.5L297.5 725L291 724C290.5 724.167 290.3 724.9 293.5 726.5C295.833 727.833 302.3 730.5 309.5 730.5L305 731.5L306.5 732.5L315 730.5L311 729.5L305 728.5L307.5 726.5L299.5 727.5L303.5 725L302.5 723.5H306.5ZM300.5 731.5L305 734L296 735.5L292.5 731.5L297.5 734H300.5V731.5ZM299.5 742.5L306.5 746C307.667 746.333 310.2 746.8 311 746C311.8 745.2 314 742.667 315 741.5L310 742L309 741H306.5L305 742.5H299.5ZM305 788.5L313.5 787L306.5 791L305 788.5ZM315 750.5C313.179 752.776 308.622 757.125 303.896 757.885C303.399 757.924 302.928 757.963 302.5 758C295.7 757.782 294.333 763.909 294.5 767C291.7 771.8 284.667 776.667 281.5 778.5V787L268.5 790L262.5 801.5L270.5 802.5L286.5 797L286 796.5H282.5V795.5H277.5C281.5 791.5 278.167 792.5 276 793.5L271.5 794C278.7 790.8 273.833 791.333 270.5 792L273.5 791C281.9 789.4 288.667 784.667 291 782.5C292.6 780.9 291 780.833 290 781L287 782.5V778.5L284 780.5L286 778.5C293.6 773.7 297.167 764.833 298 761C298.4 766.2 308.167 774.833 313 778.5L309 778L311.5 780.5C307.5 780.1 306.5 780.667 306.5 781L309 782.5C300.6 782.1 305.5 784.333 309 785.5L314.5 781C317.3 775.847 317 764.52 316.5 759.5C316.273 755.9 315.405 752 315 750.5ZM355.5 752.5C352.7 751.3 352.333 749.333 352.5 748.5L354 749.5L360.5 748.5V751C363.3 751 364.667 749.667 365 749L365.5 751H368.5C364.9 755.4 359.333 757.833 357 758.5C353 758.5 347 756.167 344.5 755C343.3 754.2 342.667 752.667 342.5 752C344.5 754 348 753.833 349.5 753.5L347 751C349.8 753 353.833 752.833 355.5 752.5ZM350.5 763L345 761V762L348.5 764.5L350.5 763ZM369 778L368.588 778.412C368.753 778.282 368.892 778.144 369 778ZM368.588 778.412L364 783L355 782.5L348.5 778.5L355 778L355.5 779.5H358L360.5 778V780.5C362.623 780.348 366.925 779.728 368.588 778.412ZM348 797.5L354 802C356.833 801.833 363.4 800.3 367 795.5C364.833 796.833 358 799.1 348 797.5ZM363.5 768L368.5 764.5L359.5 767L362 769L363.5 768ZM395.5 755.5L407 761L410.5 759.5L408 758L415.5 757L411.5 754.5H420C420.333 754.5 421.1 754.1 421.5 752.5H406L409.5 756L401.5 754.5L403 757L395.5 755.5ZM419 766L415 768.5L420 767L419 766ZM416 782L409.5 783V781H406V783L411.5 785H415L421.5 781L416 782ZM406 803L402.5 800L405.5 801L412.5 801.5C410.1 802.7 407.167 803 406 803ZM204 711L203 709H201C202.167 710.667 205.6 714.2 210 715H220.5L222 713.5H217V712L210 713.5L211 711H204ZM208.5 721L205 718.5H212V717H213L215 718.5L212 719.5L208.5 721ZM215 729.5V730.5L218 729.5L220.5 727.5L215 729.5ZM212 747L208.5 744.5H215V742.5L218 744.5L212 747ZM258.5 717.5L264 713L261 714H258.5V712L252.5 714V711H246.5V709.5H244V711L258.5 717.5ZM258.5 730V728.5L261 727.5H262.5L258.5 730ZM45.5 668L43 666V668L37 667L47 673.5H51.5L52.0833 672H45.5L48 671L45.5 668ZM59 674H52.0833L55 676.5H50.5L47 675L49 677.5C47.3501 677.39 44.5676 677.12 42.7512 676.72C41.5983 676.053 40.8487 675.698 41 676C41.136 676.272 41.8154 676.513 42.7512 676.72C44.6473 677.816 47.6344 679.756 49.5 681H51.5L59 674ZM53.5 707L44 703L45 702L48.5 703.5L52.0833 700.773L51.5 704.5H55L60 701.5L53.5 707ZM45 693V695H46.5L47 693.5L45.5 693H45ZM49 666.5L48 665L53 665.5L51 667L49 666.5ZM74 669.5L82 676.5L92 669.5H88.5V668L85 669.5L84 667H82L84.5 670.5L79 668L80.5 670.5L74 669.5ZM80.5 689V686.5L86 685.5L91 684L85 688L80.5 689ZM88.5 698V699H91L92 696.5L88.5 698ZM113 683.5L109.5 680L114.5 680.5L114 679H118.5L116 677H122.5V676L130 674.5L113 683.5ZM121 673.5L124 672V674.5L121 673.5ZM116 673.5V672H117.5V673.5H116ZM114.5 690.5L116 693C118.167 693 123.3 692.3 126.5 689.5V688.5L121 690.5C119.833 691 117.5 691.5 117.5 689.5L114.5 690.5ZM117 708L114.5 706H120.5L121 707L117 708ZM125 703V704.5L129 703L130 701.5L125 703ZM165.5 689.5L155.5 684.5L163 686L162 683.5L165.5 684.5V686H170L171.5 684.5V686.5L174.5 687.5L169.5 689.5C167.9 690.3 166.167 689.833 165.5 689.5ZM168.5 703L165 702.5L165.5 704.5L168.5 703Z" fill="#2C4655"/>
</svg>
