<svg width="7rem" height="7rem" viewBox="0 0 31 31" fill="none" xmlns="http://www.w3.org/2000/svg">
<path d="M30 16C30 24.2843 23.5081 31 15.5 31C7.49187 31 1 24.2843 1 16C1 7.71573 7.49187 1 15.5 1C23.5081 1 30 7.71573 30 16Z" fill="#E6F4F1"/>
<path d="M15.5 0.0009753C6.93722 0.0009753 0 6.99104 0 15.606C0 22.5044 4.44075 28.3514 10.5952 30.4141C11.3731 30.5614 11.6541 30.0786 11.6541 29.6612C11.6541 29.2906 11.6453 28.3104 11.6395 27.0093C7.32569 27.9495 6.417 24.9114 6.417 24.9114C5.71078 23.113 4.69166 22.6302 4.69166 22.6302C3.28891 21.6656 4.80306 21.6861 4.80306 21.6861C6.35694 21.7924 7.17456 23.2905 7.17456 23.2905C8.55697 25.678 10.8016 24.9875 11.6899 24.5857C11.8255 23.5801 12.2295 22.8886 12.6693 22.5034C9.22831 22.1123 5.61003 20.7712 5.61003 14.7916C5.61003 13.0838 6.21066 11.693 7.20362 10.6007C7.03216 10.2096 6.50709 8.61981 7.34022 6.47022C7.34022 6.47022 8.63738 6.05376 11.6027 8.07071C12.8437 7.72447 14.1612 7.55184 15.4777 7.54307C16.7952 7.55184 18.1117 7.72545 19.3527 8.07071C22.3006 6.05376 23.5968 6.47022 23.5968 6.47022C24.429 8.61981 23.9039 10.2086 23.7528 10.6007C24.7361 11.693 25.3367 13.0848 25.3367 14.7916C25.3367 20.7849 21.7136 22.1064 18.2687 22.4878C18.8073 22.955 19.312 23.9156 19.312 25.3737C19.312 27.4609 19.2927 29.1423 19.2927 29.6505C19.2927 30.0562 19.5455 30.657 20.3438 30.5C26.5438 28.4587 30.9981 22.4936 30.9981 15.605C30.9981 6.99006 24.0608 0 15.4981 0L15.5 0.0009753Z" fill="#6fabdc"/>
</svg>
