<svg width="1918" height="653" viewBox="0 0 1918 653" fill="none" xmlns="http://www.w3.org/2000/svg">
<path d="M33 405.5H0.5V648L528 653L605 642.5C609.8 642.9 657.667 633.667 681 629H1918L1917.5 388C1914.3 388.8 1911.83 388.333 1911 388C1882.6 379.6 1865.83 373.5 1861 371.5C1858.2 365.5 1855.83 365 1855 365.5C1851 369.9 1849.33 370.333 1849 370C1839.8 364.8 1833.83 363.167 1832 363C1829.2 361 1818.5 360.5 1813.5 360.5C1803.9 354.5 1799.5 351.333 1798.5 350.5C1795.3 348.5 1791.83 349.667 1790.5 350.5C1784.1 351.7 1778.5 351 1776.5 350.5C1758.9 346.1 1712.83 329 1692 321C1690.4 319.4 1680.33 314 1675.5 311.5C1673.1 308.7 1660.17 304.333 1654 302.5C1644 299.7 1636.17 294.333 1633.5 292C1630.3 290 1627.5 289.167 1626.5 289L1566 270C1563.6 269.6 1559.33 268.167 1557.5 267.5C1548.3 261.5 1530.67 248 1523 242C1513.4 238 1497 233 1490 231C1487.6 226.6 1482.67 223.167 1480.5 222C1473.7 219.6 1463.33 216.667 1459 215.5C1453.4 214.3 1449.33 211.333 1448 210C1445.6 208.4 1443.67 208.333 1443 208.5L1438.5 210C1434.9 212.8 1432 211.833 1431 211L1387 186.5C1385.4 184.9 1379 180.167 1376 178C1374.8 177.2 1369.5 177 1367 177C1362.2 175 1356.67 170.5 1354.5 168.5C1350.1 165.7 1330.33 153 1321 147C1294.6 133 1281 122.5 1277.5 119C1259.9 104.2 1252.5 95.8333 1251 93.5C1246.2 92.3 1242.67 90.6667 1241.5 90C1233.1 81.2 1220 69.6667 1214.5 65C1210.9 63.8 1202 59.8333 1198 58C1190.4 54 1184.5 49.6667 1182.5 48C1170.1 38 1149 23.8333 1140 18C1132 16 1124.67 15.1667 1122 15C1114.8 15 1100.33 18.3333 1094 20L1063 20.5H1038.5C1037.3 20.9 1033 18.3333 1031 17H1023.5C1020.5 18 1017.5 12.5 1016.5 12.5C1015.7 12.5 994.833 5.16666 984.5 1.49999C980.1 0.299989 976.667 0.666662 975.5 0.999998C973.9 0.999998 966.833 2.33333 963.5 3C958.3 5.8 954.667 2.83333 953.5 0.999998L936.5 1.49999L892 16L877 8.49999C870.2 2.09999 859.5 1.16666 855 1.49999C847.4 3.09999 825.5 20.5 815.5 29C813.5 31 810 32.8333 808.5 33.5C790.1 33.1 771.5 39.6667 764.5 43C755.3 49.8 743 55.5 738 57.5C709 75.3333 651.2 111.1 652 111.5C652.8 111.9 624.333 143 610 158.5C586.4 173.7 566.167 193.167 559 201L521 214H506.5L487.5 221C477.9 231.8 472.5 232.167 471 231L458.5 237L448.5 231C405.7 245.8 363.667 270.833 348 281.5L336.5 299C305.7 311 256 323.333 235 328L187.5 360L166.5 344.5L159.5 350.5H142L137 357C127.8 370.2 111.5 373.167 104.5 373L91 389H46.5L33 405.5Z" fill="#577282"/>
<path d="M4.5 416L36 407.5L40.5 406.5L68.5 409.5C70.9 403.1 75.5 406.833 77.5 409.5L94 400.5L104 405L107 400.5L104 399L111.5 392H99.5L82.5 400.5C74.9 401.7 66.6667 402 63.5 402C58.3 405.6 55 405.5 54 405L43.5 402L4.5 416Z" fill="#EBE5DC"/>
<path d="M131.5 395.5C147.5 391.5 131.5 391.5 121.5 392C135.5 389.2 141.333 385.5 142.5 384C148.1 381.6 151.833 377.667 153 376C161.4 374.8 181.833 370.167 191 368V364L235.5 360.5C242.7 358.9 248.167 356.167 250 355C261.6 355 262.833 354 262 353.5L282.5 345.5L266 355L257.5 365.5L250 368L237 374L243 369.5C249 363.9 240.5 366.167 235.5 368H216.5L207.5 374H194L182 380C168.4 380 160.333 381.667 158 382.5C152.4 383.7 149.667 386 149 387L147 389.5H152L153 388.5H162.5C172.5 388.5 178 386.833 179.5 386H187L192 382.5L201 388.5C175 394.5 170.167 394.333 171 393.5C169 393.5 162 392 160 391C158.4 390.2 156.333 390.667 155.5 391L150 395.5V397.5H165C171.4 397.9 169.667 399.667 168 400.5H155C151.8 400.5 153.667 403.5 155 405L184.5 409.5L141 417.5C152.2 413.9 151.667 412.333 150 412C142.4 410.8 136.167 411.5 134 412C128 414 124.167 413.833 123 413.5C135.8 409.1 137.667 405 137 403.5C143.8 400.3 136.167 396.833 131.5 395.5Z" fill="#EBE5DC"/>
<path d="M194 413.5L168 419.5L201 408C206.6 404.8 205.667 404.667 204.5 405L189 403.5L214.5 401.5C210.5 405.742 214.167 405.601 216.5 405L230 399C232 395.4 228.167 395.833 226 396.5L204.5 395.5L226 392L229 386.5H249L264 380C269.2 378 266.167 376.833 264 376.5L249 374L267.5 368H287L298.5 338.5C308.5 338.5 315.667 336.5 318 335.5L323.5 331L335.5 338.5L318.5 355C315.7 357 317.333 362.5 318.5 365L329.5 367V360.5L395 348.5V356.5L397.5 351L399 346.5H405.5C407.1 344.9 400.833 342.167 397.5 341L420.5 343L413 325L403.5 324L399 316H395V312L366.5 319.5L396.5 309L414 312.5C421.6 314.5 421.167 312.333 420 311C415.6 308.6 409.833 306 407.5 305C411.1 305 415.667 303 417.5 302L424.5 298.5L421 303C419.4 305 421 305.833 422 306L428 304V309L438.5 312H426.5V314L445.5 316V324C436.7 329.6 431.833 334.667 430.5 336.5C422.5 338.9 427.167 342.5 430.5 344L420.5 346.5C410.9 346.1 412.167 347.667 414 348.5L419.5 351L397.5 359L396 365.5H400.5C394.1 371.9 397.833 372.833 400.5 372.5L389.5 387.5L399 389.5L389.5 400.5L378 406.5C370.4 411.3 362.833 418.167 360 421L340.5 429.5L349 423C352.6 418.6 347.5 417.167 344.5 417L342.5 405C342.1 398.2 339.667 398.5 338.5 399.5C331.7 403.1 327 408 325.5 410L335.5 406.5L321 420L312 423H303L297 421L313.5 417L319.5 400.5C319.1 394.5 315.333 395.333 313.5 396.5L300 405H290L300 391L317.5 385C312.7 391.8 314.5 391.833 316 391C322.8 388.6 329.5 387.667 332 387.5C348 389.5 357.333 389.667 360 389.5L369 385L374 387.5L370.5 389.5C362.5 394.3 362.167 396.167 363 396.5H370.5C372.9 396.5 378.167 392.833 380.5 391V385C385.3 381.4 384.833 378.833 384 378C380 375.6 374.333 374.333 372 374C367.2 376.4 363 376.667 361.5 376.5C354.3 373.7 350.167 373.667 349 374L334 381L332 372.5L322 381L306 380L310.5 372.5H298.5L286 381L298.5 380L287 389.5C289.8 383.1 285.833 383.833 283.5 385L266 389.5L269 391H276L262 399.5H249L234 408H231.5L238.5 403.5C240.9 396.7 237.5 398.667 235.5 400.5L213.5 412L194 413.5Z" fill="#EBE5DC"/>
<path d="M223 424.5L218.5 419.5L199 427.5H197L214.5 417L235.5 413.5L223 424.5Z" fill="#EBE5DC"/>
<path d="M250 413.5L259.5 406.5L243 412V417L228 428.5L240 427.5L237 433.5L246.5 431L250 433.5L259.5 427.5H250C244 428.7 243.833 427 244.5 426L253.5 415H249L250 413.5Z" fill="#EBE5DC"/>
<path d="M269 429.5L264 436L275 432.5C271.4 437.7 271.833 439.667 272.5 440L287 431L281 440H294.5L277.5 442L276 449.5L246.5 442H259.5L253.5 438.5L269 429.5Z" fill="#EBE5DC"/>
<path d="M402 305L388.5 307.5V302C390.9 296.4 388.5 297.333 387 298.5L378.5 306L385.5 291.5C387.9 285.9 386.5 286.167 385.5 287L373 297.5L393 276.5L394 293C394.4 299 397.5 297.167 399 295.5L413 276C415.4 272.8 416.333 272 416.5 272L409 270.5L416.5 262.5H410L432.5 251L424.5 270L420 280L424.5 274.5L442 250L449.5 251L448 255C446.8 260.6 449.5 260 451 259L460.5 248L463.5 251L434.5 293.5C429.3 297.1 428 295 428 293.5L441 267C439 262.6 436.833 263.833 436 265L422 293.5C420 286.7 417.5 287.667 416.5 289L402 305Z" fill="#EBE5DC"/>
<path d="M445.5 302L432.5 300.5L463.5 293.5C467.5 285.923 470.833 282.01 472 281L488 274.5C490 278.1 493.5 277.333 495 276.5L529.5 263L541.5 250L577.5 233L568 248L566 255L552.5 259L544 270L529.5 276.5V272.5L516.5 274.5C508.1 278.1 505.667 281.667 505.5 283L509.5 288L497.5 290C494.7 287.2 482 298.167 476 304L467 302L449.5 304L445.5 302Z" fill="#EBE5DC"/>
<path d="M490 269L492.5 259L481 264L482 246.5L488 244C489.6 260.8 491.667 255.667 492.5 251C496.1 239.8 497.333 239.333 497.5 240.5L505 246.5H523L516.5 253.5L526 248L546 238.5C540.8 239.7 540.833 237 541.5 235.5L549 233L570 223L549 229.5H538V227.5L549 223L539.5 224.5L535 226C521 228.8 518.5 231.833 519 233C525.4 239.8 521.667 240.833 519 240.5C509 240.5 505.833 238.167 505.5 237C512.7 231.8 508.167 232.833 505 234C497.8 238 497.333 233.667 498 231L505.5 224.5L493 232L492.5 237L484 238.5L474.5 248L471 274.5L490 269Z" fill="#EBE5DC"/>
<path d="M502.5 356L467 337.5L483 348L486 356C492.8 360.4 483.167 361.833 477.5 362L488 363.5L498 373.5H488L515 387.5L509.5 382.5V380.5L498 366L506 367.5C503.2 363.9 507.167 365 509.5 366L517 369.5V366L520 367.5L528 370.5L525 367.5C517.8 358.7 523.333 361.167 527 363.5L558 385L573 401C578.2 405 579.833 410.333 580 412.5C584.8 425.7 576.333 420.667 571.5 416.5C561.9 411.3 564.167 414.333 566.5 416.5C577.7 426.9 564.5 421.5 556.5 417.5L546 412.5L607 455L580 432.5L581.5 426L591 428.5L595.5 421C602.3 406.2 605.333 412.5 606 417.5L614 412.5H618.5V416.5L624 412.5C636 405.3 635 411.167 633 415L629 426L645.5 417.5L646.5 423L665 415C678.6 408.6 675 414.333 671.5 418L675.5 416.5C685.5 411.3 682.333 416 679.5 419L675.5 424.5L687 419V426L697 423L700.5 403.5L718 380H721L725 373L721 383.5L705.5 406H709C718.6 406 716 409.667 713.5 411.5L709 416.5L725 432.5L740.5 397.5C743.3 389.5 748.667 384.167 751 382.5C746.2 394.9 747 397.667 748 397.5L757 392.5H761V395L755 407.5L770.5 406H771.5L746.5 432.5L770.5 418L784.5 419L793 427.5L847 426C855 428.8 862.333 430.5 865 431H882L880.5 440L908.5 414L891.5 421L888 416.5L889.5 414L893 409L903 387.5L891.5 395C891.9 388.2 890.333 387.167 889.5 387.5L876 395V392.5L906.5 355L897 356.5L879.5 365L872.5 356.5V355C878.5 355 895.333 351 903 349C916.6 357 920.333 357.333 920.5 356.5L942 347.5V339C947.2 330.2 952.833 333 955 335.5V325.5L987.5 321.5C1007.5 332.3 1034.5 340 1045.5 342.5C1050.7 350.9 1062.67 359.667 1068 363V367L1055.5 393L1022 382V384.5H1001L993.5 375.5L981 390H952.5C951.3 398 943.333 399.333 939.5 399L979 424.5C973.8 414.5 982.5 420.333 987.5 424.5L1011 441L1001 431V429.5L989 416.5H1003L1004.5 407.5L1025 395L1032.5 399C1038.9 407.8 1052.5 404.333 1058.5 401.5L1072.5 404L1096 401.5L1100.5 406L1116 401.5V384.5L1126 388L1128.5 390L1135.5 381.5H1138L1153.5 392V395L1144 395.5L1156.5 408.5L1152.5 397.5L1164 399C1170 411.8 1172.83 413.333 1173.5 412.5L1198 433.5L1194 427C1189.6 417 1194.83 420.833 1198 424L1204 431L1201.5 418.5L1199.5 414.5V412.5C1175.1 396.1 1160.67 383 1156.5 378.5L1181 388L1194 401.5C1198 405.9 1204.67 408 1207.5 408.5V420L1221.5 446.5L1219 427L1261 406.5L1251 399H1258.5L1267 401.5H1275L1292 399L1317.5 403L1302.5 392V390H1327L1323 371.5L1333.5 349.5L1345 342V327C1351.8 320.2 1359.5 321.5 1362.5 323C1370.9 323.4 1369.33 327.167 1367.5 329L1363.5 334L1371.5 338.5C1378.3 342.5 1382 341.833 1383 341C1395.4 337.4 1398.5 337.833 1398.5 338.5L1405 343.5C1407.8 348.3 1415.17 346.833 1418.5 345.5C1429.7 346.3 1428.17 349.5 1426 351L1422.5 355.5L1434.5 351L1458 358V361H1431.5V364.5L1418.5 371.5L1444.5 364.5L1456 371.5C1461.2 379.9 1464.83 381.667 1466 381.5L1476.5 390L1481 381.5L1470 373.5V369.5H1474.5L1470 363L1471.5 361L1499.5 379L1487.5 377V381.5L1497 390V384.5L1513.5 392V394.5C1509.5 393.3 1498.5 403 1493.5 408L1473 396C1468.2 404.4 1426.67 433.167 1406.5 446.5L1444.5 424.5L1457 439.5L1449.5 446.5L1463 444C1471.4 442 1477.17 440.167 1479 439.5L1484 437.5V446.5L1499.5 424.5L1517 414.5V404.5H1525L1527 399L1517 390L1539 399L1545.5 390L1565 399L1556.5 409.5L1585.5 429.5C1578.7 422.7 1578 417.667 1578.5 416L1588 419L1585.5 412L1588 409.5H1590L1592.5 408H1596.5C1592.9 404.8 1593.33 401.667 1594 400.5L1622 404.5C1625.2 406.5 1634.67 407.667 1639 408L1673.5 422.5L1682 416L1696 426C1698.4 428 1706 426.833 1709.5 426L1718 436C1727.6 431.6 1742 429.833 1748 429.5L1785.5 423.5H1754C1744.4 423.1 1747 420.333 1749.5 419L1763 416C1769 413.6 1767.5 412.333 1766 412H1755.5C1743.5 414 1746.5 410.167 1749.5 408L1755.5 396H1763C1769.4 397.2 1770.67 395.5 1770.5 394.5L1774 390.5C1781.2 393.3 1782.33 401.667 1782 405.5L1800 394.5L1805.5 405.5L1807 414L1825 429.5H1851.5L1825 422.5L1816.5 414C1811.3 407.2 1815.67 407.167 1818.5 408L1831 416C1834.6 417.6 1838.83 416.667 1840.5 416H1851.5L1863 422.5H1874L1863 419C1859.4 414.6 1853.83 412.5 1851.5 412L1857.5 400.5L1867.5 405.5L1855.5 392.5H1866L1880 397.5H1883.5L1887 400.5L1917.5 414V408L1904.5 400.5L1899.5 397.5L1897.5 396H1894.5L1889.5 394.5L1872 387L1857.5 381.5L1863 385C1867.4 387.8 1861.17 387.5 1857.5 387L1851.5 385H1849C1844.6 381 1836.5 376.333 1833 374.5L1821.5 377H1816.5V374.5L1823 370V366L1807 361L1803.5 366H1790L1782 358L1749.5 348C1732.3 342.4 1740.33 346.667 1746.5 349.5C1752.1 352.7 1748.17 353.167 1745.5 353H1741C1739.83 353.667 1737 354.6 1735 353C1733 351.4 1728.83 350.667 1727 350.5C1723.8 350.5 1725.67 344.5 1727 341.5L1695.5 330L1667.5 322C1657.5 318 1662 321.667 1665.5 324C1671.1 328.8 1660.83 328 1655 327C1649.4 325.8 1650 320.5 1651 318C1646.2 314.8 1640.67 313 1638.5 312.5L1635.5 318C1625.5 316.8 1624 312.5 1624.5 310.5L1511 274L1485.5 260.5C1487.9 263.7 1489.5 269.833 1490 272.5C1492.4 275.3 1491 281.333 1490 284H1508L1499 277L1508 279.5L1527 289.5L1530.5 291H1537.5C1545.9 291 1542.33 294.667 1539.5 296.5L1561.5 295L1565 302.5H1581.5L1585.5 307.5C1591.1 309.1 1589.83 311.5 1588.5 312.5L1585.5 314.5L1614 325H1621C1620.6 336.6 1649.83 339.833 1664.5 340L1670 345.5L1686 348L1690 350.5L1707.5 356.5L1718 362.5H1711L1673.5 353C1665.1 346.6 1661.33 345.333 1660.5 345.5L1648 348C1641.6 345.2 1629.67 342.5 1624.5 341.5C1622.9 338.3 1615.17 332.5 1611.5 330L1599.5 328.5C1591.1 328.5 1585 324.167 1583 322C1575 325.2 1565.33 323.333 1561.5 322L1559.5 310.5L1551 307.5V314.5L1543.5 315.5L1533 305.5L1530.5 302L1527 303L1531.5 310.5C1534.3 313.3 1533.67 315 1533 315.5H1525L1505 305.5H1501V303L1508 291H1482.5L1455 275.5H1431.5L1370 243.5C1358.8 226.7 1339.33 210.833 1331 205L1302.5 194C1292.9 191.2 1298.5 187.167 1302.5 185.5L1290.5 180.5C1284.5 177.3 1284.33 175.5 1285 175L1295.5 166L1275.5 173L1244 166L1236 156L1246.5 147.5L1270.5 154L1249.5 142.5L1255 131L1241.5 129L1231 135.5C1223.8 141.5 1220 140 1219 138.5L1199.5 126.5V140L1175.5 138.5C1143.5 132.5 1121.17 111.333 1114 101.5C1103.2 89.1 1098.83 79.6667 1098 76.5C1094 70.5 1095.33 69.3333 1096.5 69.5L1102 64C1113.2 54.4 1107.33 57 1103 59.5C1096.2 61.5 1092.17 61.3333 1091 61C1088.2 59.8 1080.17 55.8333 1076.5 54C1060.5 48.4 1067.83 49.3333 1073.5 50.5C1093.1 55.3 1095.67 54.8333 1094.5 54L1122.5 42C1129.7 40 1132.17 41.1667 1132.5 42L1152.5 57C1161.3 63.4 1151.17 61 1145 59L1191.5 89.5L1161.5 66.5V65L1167.5 66.5L1164 62.5C1158.4 59.3 1156.33 55.5 1156 54L1154.5 50.5L1152.5 44.5L1150.5 42C1142.66 45.6 1141.24 43.5 1141.5 42L1139.5 34.5H1150.5L1169 47C1175.4 51 1168.33 51 1164 50.5L1187.5 66.5L1173.5 50.5L1171 44.5L1145 27.5L1139 25L1139.5 17.5C1128.7 14.7 1121.67 14.6667 1119.5 15L1106.5 17L1094.5 20H1037.5L1031 17C1021.4 18.2 1018 14.5 1017.5 12.5C994.3 4.1 983.5 1.66666 981 1.5L979 6L986.5 10.5H979L981 19H960.5L972 7L951 6L948.5 12.5C939.7 11.3 940.5 14 942 15.5C947.6 17.9 947.667 19.5 947 20H935C927.8 16.4 922.667 19.5 921 21.5C929.4 23.9 924.5 24.5 921 24.5C916.2 22.5 917.333 27.3333 918.5 30L924.5 39L933.5 41.5L944 51V58L959.5 68L1041.5 81.5L1024.5 69.5L1003 61.5L1033.5 59.5L1043 71L1064 79.5L1073.5 94.5L1089.5 102.5C1090.3 110.1 1094.5 113.333 1096.5 114L1105 118.5L1094.5 122C1082.9 107.6 1074.67 102.333 1072 101.5L1039 91.5L1069 107V114L1079.5 122L1082 126.5L1083.5 130.5L1086 134.5V138.5L1083.5 142L1072 144.5H1067.5L1057.5 142L1059.5 147.5H1053.5L1049 138.5L1043 142L1041.5 130.5L1026.5 122L1012 107L1000.5 99L1006.5 111L1015.5 112.5L1014 140L1024.5 142L1033.5 162.5H1039L1049 179.5C1057 181.5 1056.67 184.333 1055.5 185.5L1064 202L1075.5 211L1067.5 213L1090.5 233.5L1086 221.5L1094.5 233.5V247C1094.1 261.4 1091.67 262 1090.5 260.5L1073.5 236L1067.5 238.5L1057.5 221.5L1039 199C1029 191 1032.17 190.333 1035 191L1041.5 194L1030.5 167L1017.5 151.5L1006.5 136L1010 150C1012.8 153.2 1011.17 156 1010 157L1009 160V165L1010 172.5C1012.8 177.7 1012.5 181.333 1012 182.5L1006.5 188.5L1012 191C1021.2 195.4 1015.83 196.167 1012 196H1006.5L1017.5 207.5V218L1015.5 221.5H1024.5L1029.5 219.5L1026.5 233.5V240L1014 233.5V224L1006.5 215.5C1005.7 213.5 1002.17 210.333 1000.5 209L990 199L983.5 215.5L998 226L972.5 221.5L968 200.5L959.5 202C966.338 204.4 966.349 207.667 965.5 209L968 215.5L963 218C959 215.2 954.333 208.5 952.5 205.5C951.3 197.5 949.333 195.833 948.5 196L936 191L932 184V179.5H947L948.5 180.5L959.5 182.5L957 184H936V187L959.5 192.808L972.5 188.5L981 209V196L995 194L998 184L992 182.5L1000.5 160L992 157L988.5 175L983.5 187L975 172.5L983.5 170.5L981 157L986.5 155V136L979 134.5L978 131.5L981 130.5L965.5 101.5L979 107L981 94.5L969.5 89.5C959.9 86.7 970.5 83 977 81.5L959.5 76C959.5 82 957.833 80.8333 957 79.5L948.5 72.5C931.7 71.3 932.5 70 935 69.5L942 61.5L932 49L936 61.5L921 49L927 44.5L915.5 41.5L881.5 31.5L890.5 30L863.5 15.5V10.5L910.5 33C905.3 25.4 908.333 24.1667 910.5 24.5L923 15.5C910.6 15.5 916.5 12.1667 921 10.5L944 4.5L932 2.5L892.5 15.5L874 6C864 -3.33786e-06 855.5 0.499997 852.5 1.5L845.5 6C829.1 17.2 819.667 25.3333 817 28C811.8 32 808.5 33.3333 807.5 33.5C786.7 32.7 769.833 39.5 764 43C757.6 49.4 743.333 55.6667 737 58L769 46.5V52L776 50L777.5 56L769 60L766.5 66.5L753 81.5L772 66.5L773.5 61.5L784 54.5L793.5 48L800 46.5L797 52L769 76L746 92.5L753 89.5C758.6 83.5 757 89 755.5 92.5L746 99.5L743 112L740.5 115L737 118L735.5 120.5H732.5V116L723.5 124.5H729L711 143L715 133C708.2 137.4 706.833 136.833 707 136L711 128.5L694 143L700 141C700 145 696 149.667 694 151.5C689.2 154.7 680 161.167 676 164L671.5 166L657 188.5L640 196.5L626.5 213L646.5 205.5L654.5 199L676 178.5L678.5 174L681.5 172L694 170.5C704 169.3 710.833 164.667 713 162.5C721.8 153.3 723.667 148.667 723.5 147.5C716.3 145.5 718.5 143.667 720.5 143L732.5 136C726.1 136 726.5 134 727.5 133L732.5 127.5L740.5 120.5L746 115L743 120.5H750C758 110.5 770.667 103.667 776 101.5C779.2 101.5 784.667 100.167 787 99.5C786.6 95.5 788.5 91.1667 789.5 89.5L792 85.5L793.5 92.5L803.5 79.5L797 81.5L800 74H807.5C815.9 69.6 822.667 71.1667 825 72.5L837 76V89.5L844 85.5V94.5L858.5 84L850 81.5L858.5 74C857.3 72 859 65.8333 860 63L863.5 55.5L886.5 49L881.5 61.5C890.7 58.7 888.667 61.3333 886.5 63L877 78L896.5 68.5V74C894.1 83.2 900.167 81.5 903.5 79.5L912 84V94.5L918.5 104.5L917 116L927 118L924.5 124.5L944 134.5L952.5 130.5L948.5 144.5L938.5 157H930L927 162.5L918.5 155L921 164L913.5 157L907.5 160L912 170.5H907.5L921 180.5C928.2 186.9 926.333 187.5 924.5 187L912 182.5L907.5 187C925.9 193 925.5 194.167 923 194H899.5L888.5 202L903.5 196C907.9 196 918.333 198 923 199C936.6 206.2 941 211.333 941.5 213L952.5 215.5L948.5 229C941.3 231.8 942.5 233.167 944 233.5C950.8 238.3 949.833 242.5 948.5 244L944 250L917 256L901 260L886.5 264.5H882.5L884 260L910 244L878.5 251.5L870 254.5L833.5 273.5L826.5 278H821.5L809.5 286L821.5 276L845.5 260L867.5 241.5L857 236L833.5 240L821.5 231.5V227.5L840 223L827.5 215.5L847 199L838 178.5L844 166L833.5 157L840 143L850 151.5L857 179.5V194L861.5 221.5L863.5 194L873.5 199L896.5 187H875.5L867.5 170.5L875.5 166L886.5 182.5L892.5 180.5C886.5 168.1 884.333 161.667 884 160L893.5 166L896.5 150L903.5 147.5L896.5 143L888.5 118L884 120.5L888.5 139L878.5 120.5L890.5 99.5V78L860 94.5L870 96.5L857 104.5L845.5 124.5L852.5 127.5L837 134.5V130.5L823.5 136L818.5 124.5L840 120.5L845.5 109L833.5 111L823.5 94.5L807.5 101.5H818.5L827.5 112C834.7 114.4 827.833 117 823.5 118H820.5L818.5 116L807.5 109L798.5 115C798.1 115.8 795 116 793.5 116L784 112L779 116L784 120.5L782 130.5L773.5 134.5L782 143L773.5 151.5L764 150C760 150.8 753 143 750 139H746L747.5 155C758.7 161.8 758.833 165.167 757.5 166L766.5 179.5V164L776 155L789.5 160L802 170.5L814 176.5L817 190V199L821.5 202L820.5 213L826.5 205.5L830 182.5L834.5 192.5L827.5 211L821.5 219L814 223C817.6 225 816.5 227.833 815.5 229L803 236L809.5 244V263L799 269C810.6 275 795.833 273.5 787 272L779 267.5L773.5 269V283.5C781.5 291.5 780.5 295.5 779 296.5L771.5 303.5L757.5 301L761 292L738.5 286L750 299L745.5 305.5L746.5 309.5L738.5 312.5L745.5 320.5L729 332.5L722 314.5C712.8 311.7 710.833 307.333 711 305.5L724 286L740.5 280L720.5 283.5L711 287L702.5 292C694.5 294 694.833 291.833 696 290.5L704.5 276L681.5 281.5L666 296.5L651.5 305.5L675.5 314.5H693.5C706.3 312.9 701.167 316.167 697 318L675.5 323.5H654L624.5 356C622.9 360.4 616.833 360.167 614 359.5L606 358L622.5 367.5L626.5 366L642.5 370.5L624.5 382.5L614 385C597.2 390.2 591.667 388.833 591 387.5L562.5 376C555.3 373.2 558.167 372.167 560.5 372L597.5 369.5L583.5 367.5C574.7 366.7 575.833 365.167 577.5 364.5L609 350.5C616.2 351.3 618.333 351.5 618.5 351.5L643.5 316.5L624.5 329.5L626.5 325.5L653 296.5L639 303.5C627.8 306.7 628 304.833 629.5 303.5L639 288L668.5 281.5L673 273.5L700.5 269L673 272L635 276L628 288C623.2 293.6 622.333 292 622.5 290.5L616 277C627.6 266.2 644.5 257.833 651.5 255C658.7 253.8 662.833 254.167 664 254.5C677.2 256.5 681.167 255.333 681.5 254.5L710 248L682.5 246.5L707 240L685.5 223H664L654.5 216.5L626.5 223L634 224.5C639.6 226.5 636.333 228.667 634 229.5L623.5 232C618.3 230.4 614.667 228.333 613.5 227.5V220L610 223C604.4 225.4 601 225 600 224.5L585.5 220L592.5 226C595.7 228.4 595.167 230.333 594.5 231L591 238.5L608 246.5L613.5 245C620.7 243.8 619.833 245.5 618.5 246.5L612.5 253.5H601.5L594.5 248L598.5 259L583.5 270C579.5 272.4 577.833 271 577.5 270L571.5 269L591 288V310.5L585.5 322.5L606 320.5L600 328.5L580 332.5H577.5L575.5 328.5L562.5 348H552.5C550.1 349.2 544.167 351.167 541.5 352L528 344.5C537.2 352.1 538.5 356.667 538 358C531.6 355.2 520 346.833 515 343C503.4 335.8 500.833 336.333 501 337.5L512 346.5V350.5L501 344.5L498 350.5L502.5 356Z" fill="#EBE5DC"/>
<path d="M1198 88L1217.5 96C1224.3 98.7897 1216.67 91.1624 1212 87L1217.5 91C1229.1 102.2 1225.67 93.6667 1222.5 88L1229.5 92C1230.3 94 1233.5 95.5 1235 96L1233.5 92L1240 97C1247.2 100.6 1248 104.833 1247.5 106.5L1255 119.5L1245 112C1235.8 104.4 1237.83 110.5 1240 114.5L1228.5 106.5C1219.7 100.5 1225.5 107.667 1229.5 112L1198 88Z" fill="#EBE5DC"/>
<path d="M1336 170.5L1299.5 146L1323.5 164.5L1318 166L1323.5 167L1324.5 168.5L1353.5 185.5C1362.7 189.5 1355 191.167 1350 191.5L1364 205C1365.2 196.6 1370.17 201.5 1372.5 205L1378 210.5H1386.5V208.5L1381 205L1391 208.5L1406 218.5L1408 212.5C1412.78 218.5 1415.99 220.333 1417 220.5L1431.5 226L1475 250L1418.5 212.5C1418.1 218.5 1414 215 1412 212.5C1406.8 207.7 1400.83 204.167 1398.5 203C1388.9 199.4 1385.17 193.833 1384.5 191.5H1374.5C1363.3 180.7 1349.5 173 1344 170.5H1336Z" fill="#EBE5DC"/>
<path d="M1518 269L1506 251L1525 266L1527.5 261.5L1546.5 279.5L1531.5 269V274L1518 269Z" fill="#EBE5DC"/>
</svg>
