<svg width="1920" height="1081" viewBox="0 0 1920 1081" fill="none" xmlns="http://www.w3.org/2000/svg">
<path d="M961.5 1008L938 1078.5L1919.5 1081V661.5H1902L1876 675L1850 667.5C1846 659.1 1839.33 652 1836.5 649.5C1825.7 645.1 1817 637.333 1814 634L1797 628L1781 634C1774.6 636 1771.67 634.833 1771 634L1759 624H1738L1676.5 604.5H1655.5L1609.5 619H1597L1539.5 640.5H1519C1429.8 692.1 1399.17 702 1395 700.5C1381 703.3 1362.5 701.667 1355 700.5H1341L1331 693.5H1293L1257.5 714H1234.5C1183.3 729.6 1126.83 770.5 1105 789L1091.5 809L1078.5 824.5L1005 981L961.5 1008Z" fill="#283C48"/>
<path d="M1252.5 748V727L1224 745.5L1199 777L1147 807L1138.5 818.5V840L1142.5 846.5H1151.5L1163 861.5L1169.5 849.5L1179.5 854L1236 802V777L1280 751L1252.5 748Z" fill="#535C59"/>
<path d="M1274.5 870.5C1270.1 870.9 1260 867.333 1255.5 865.5L1390.5 757.5L1409 751H1425.5L1377.5 793L1337.5 812L1274.5 870.5Z" fill="#535C59"/>
<path d="M1435.5 916.5L1462.5 897H1474L1551.5 852.5L1581.5 843L1516.5 900L1435.5 916.5Z" fill="#535C59"/>
<path d="M1598 798L1585.5 784.5L1601.5 766L1619.5 768.5L1637.5 781.5L1641.5 784.5L1668 791L1598 798Z" fill="#535C59"/>
<path d="M1650.5 692L1634 674.5H1824.5L1873.5 682L1846.5 706L1805.5 716.5L1771 751L1766.5 762.5L1731 754L1754.5 724L1739 714L1718.5 716.5L1684 706H1637.5L1650.5 692Z" fill="#535C59"/>
<path d="M1892.5 832.5L1873.5 817.5H1919.5V832.5H1892.5Z" fill="#535C59"/>
</svg>
