<svg width="1921" height="1080" viewBox="0 0 1921 1080" fill="none" xmlns="http://www.w3.org/2000/svg">
<path d="M0.5 706.5C3 705.667 8.1 703.6 8.5 702C8.9 700.4 3.33333 703 0.5 704.5V691C3.5 689.5 9.9 686.1 11.5 684.5L0.5 689V675.5C2.66667 674.667 7.3 672.7 8.5 671.5L0.5 673.5V664L10.5 657L8.5 656L7 657.5H5.5V656L0 657V649L10.5 645.5L6 644.5L7 643.5L1.5 644.5L3.5 641.5H0V638C2.83333 637.333 10 634.7 16 629.5L10.5 630.5L12 628L8.5 629L10.5 626.5C12 625.5 15.5 622.7 17.5 619.5L21 610C23.1667 612.833 28.7 619.6 33.5 624C33.9693 624.587 35.017 625.586 36.2939 626.127C36.8743 626.242 37.4598 626.371 38 626.5C37.4081 626.5 36.8307 626.354 36.2939 626.127C33.1141 625.496 30.0879 625.294 35.5 628H30L33.5 630.5H28.5C28.8333 631.667 30.9 634.3 36.5 635.5C37.1667 635.833 39.8 636.5 45 636.5L41.5 638L43 639H38C37.1667 638.833 36.3 638.9 39.5 640.5L36.5 641.5C35 641.333 31.7 640.8 30.5 640C29.3333 640.333 28.9 641.9 36.5 645.5C38.1667 646.333 43.6 648.2 52 649L44 650L47.5 653.5L41 651C38.8333 650.167 35.8 649.5 41 653.5L39 654C35.5 652.667 29.7 650.8 34.5 654C36.1667 655.667 42.3 659.6 53.5 662H56.5C57.3333 661.28 58.1 659.971 54.5 660.5L52.5 661L53.5 658.5L49 659.5L50.5 657.5L48.5 657L52 655H53.5C55 654.167 58.8 651.6 62 648H59.5V645.5H58C59 644.5 61.5 641.3 63.5 636.5C64.3333 634.833 66.1 631 66.5 629C68 631.333 71.4 636.6 73 639C73.8333 640.167 76.1 642.7 78.5 643.5L74 643L77 645.5H73L75.5 647.5H71C72 649 75.5 652.4 81.5 654L77 656L78.5 657.5H73L77 662C77.5 662.333 79.2 662.9 82 662.5C84.6667 661.5 90.3 659.2 91.5 658L89.5 657V656H85L86 654H82L83.5 652.5L79.5 651H85L95 643H91.5L92.5 641.5L90 641C92.3333 637.833 97.5 630 99.5 624C100.667 626.5 104 632.8 108 638L107 639L109 640.5H105L108 643H104C104.667 644.667 106.8 648 110 648L115 649L110 651L112 652.5H105C105.333 654 107.2 657.5 112 659.5C112.5 660.167 114.6 661.4 119 661L113.5 662.5L116.5 665.5L112 662.5V665.5L108 664L107 665.5L109 667H115C118.5 666.167 126.1 664.1 128.5 662.5L125 662V661H120L121.5 658L115 658.5L116.5 657.5L113.5 657L120 655C123.667 653.833 131.5 650.8 133.5 648C134.667 646.667 135.7 644.7 130.5 647.5V645.5H127L133.5 640.5C135 638.5 138.4 633.2 140 628C142.667 631.833 149.5 640.2 155.5 643H151.5L154 645.5L149 644.5L152.5 647.5L147 648C147.667 649.667 151.8 653.2 163 654L155.5 656L158.5 658.5L150 657.5C148.333 657.667 146.8 658.9 154 662.5C156.5 663.333 163 665.2 169 666L163 667L166 670L158.5 667L160 670L157.5 671C155.833 670.667 152.5 669.8 152.5 669C152.5 668 151 673 158.5 674.5C160.667 675.667 165.8 678.1 169 678.5C171.667 677.333 177.7 674.2 180.5 671L174.5 673L176 671H172L175.5 667.5C177.5 666.167 182.3 661.3 185.5 652.5C187.167 655.333 192.9 662.6 202.5 669L197 667.5L201 671L194.5 670L198 673H192.5C193.833 674.167 197.7 676.9 202.5 678.5H209L205 680L207 681H201L205 682.5H194.5C195.5 684 199 687.5 205 689.5L215 691L208 692L210.5 694.5L202.5 692L205 695.5L197.5 694V695.5C199.833 697.167 205.7 700.9 210.5 702.5C212.333 703.667 217.2 705.1 222 701.5H218V700H212L213.5 698L207 699L210 696H207L212 694C214.833 693.667 221.6 691.7 226 686.5H221L222 685L218.5 685.5C221.333 683.333 227.6 677.8 230 673L232.5 667.5C234.167 669.833 238.4 675.3 242 678.5L249 683.5L244.5 682.5L247 685L241.5 684.5L245 687L239 686.5C239.9 688.15 243.393 691.448 250.5 692.674C251.288 692.81 252.121 692.92 253 693C255 693.333 260.2 693.1 265 689.5L269 686.5H262.5L265 684.5L260.5 685L266.5 680C268.167 678.5 271.8 673.9 273 667.5C275.333 670.167 281.9 676.9 289.5 682.5H285L289.5 685.5L283 684.5L286 687H281C281.833 688.5 285.2 691.8 292 693H296.5L293 694.5L295.5 695.5H289.5L292 698L283 697C283.667 698.5 286.6 701.9 293 703.5C295 704.333 300 705.9 304 705.5L296.5 706.5L299.5 709L293 706.5C291.333 706.333 289 706.6 293 709L288 710L286 708V710C287.333 711.667 291.3 715.2 296.5 716C298.5 717 304.9 719 314.5 719L320.5 715H314.5L316.5 713.5H312.5L320.5 706.5L325.5 695.5C328.833 700.333 336.9 710.2 342.5 711L340.5 712L338 711L336.5 710L340.5 713.5H334.5L338 715L333 716C333.833 717.667 338.1 721.1 348.5 721.5L346 723L348.5 724.5L342 724L344 726L334.5 724.5C334.167 725.333 335.3 727.8 342.5 731C345.204 732.113 351.217 734.107 354.542 733.592L355 733.5C354.854 733.536 354.701 733.567 354.542 733.592L347.5 735L352 738.5L344 735L346 738.5L338 737C338.167 738.5 340.9 742.2 350.5 745C352.833 745.167 359.5 744.3 367.5 739.5L366.5 737L363 738.5V735L358 737L361 733.5L356.5 732.5L366.5 729.5C364.167 728.833 359.5 727.2 359.5 726H363L356.5 724.5C360 724.333 367.8 723.5 371 721.5L375 717L369.5 719L371 716L367.5 717L369 714.5C372 711.833 378.5 704.8 380.5 698C384.075 703.44 391.853 713.779 396.13 714.5H397C396.73 714.554 396.439 714.552 396.13 714.5H392L395.5 716H388.5L392 717L387 718C388 720 392.7 724 403.5 724H404.5L400.5 725L401.5 726.5L396 726L398.5 728.5L389.5 728C389.333 729 391.2 731.8 400 735C402.333 735.333 409.3 735 418.5 731L414.5 728.5L423 728C426 726.667 429.6 724.1 420 724.5H418.5L428 716C429.167 714.667 429.8 712.2 423 713L429.5 711L431.5 705.5L435 710L447.5 706.5L443 705.5L444 703.5L437.5 704.5L439.5 702L431 702.5L436 700.5L429.5 699H438.5C440.833 698.167 446.9 695.3 452.5 690.5H447.5L448.5 689H445L447.5 686C449.5 684.333 454.3 679 457.5 671C460.833 675.5 468.7 685.1 473.5 687.5L468 686L471 689L466.5 687.5L470 691.5L465 690.5C464.333 691.5 465.6 694.2 476 697H482L478 699L480 700.5L473.5 699L476 702H466.5L478 708.5L483.5 713L476 711L478 714.5C476.667 714.667 473.4 714.6 471 713C469.5 712.667 468.2 713.2 475 718C480.833 717.333 493.1 715.4 495.5 713L491.5 712L493.5 710L487 711L489 708.5L481 710L484.5 707.5L480 706.5L489 704.5C492.5 703 499.9 699.4 501.5 697L495.5 698L497.5 695L493.5 696L495.5 693.5C498 691.667 503.8 685.8 507 677C509.833 681.667 517 691.5 523 693.5H517.5L521 695L516 696C516.167 696.667 517.8 697.8 523 697C527.833 694.667 537.9 689.5 539.5 687.5L535 689L533.343 687.5L526.5 689L528 686H518.5L523 683.5L514.5 682.5L524 681C528.5 680.167 537.7 678.2 538.5 677L535 676L536 674.5H529.5L531 672.5L523 673.5L526.5 671H523L528 669.5C531.333 668.5 539.1 665.5 543.5 661.5H538.5L540.5 659.5L536 660.5L539.5 656.5C541.667 654.667 546.7 649 549.5 641C552.333 645.5 559.5 655.1 565.5 657.5L560 656.5L564.5 659.5L558 658.5L562 661.5C560.667 661.5 557.7 661.3 556.5 660.5C556.5 661.833 558.1 665 564.5 667H573L567.5 669.5H570.5L564.5 671L568.5 672.5L558.5 671.5C560.667 673.833 566.3 678.5 571.5 678.5L580 680L573 681L576 684.5L566.5 681L569.5 684.5L561 682.5C563.333 685 569.9 690.5 577.5 692.5L585 693.5V691.5H582V689L577.5 690.5L579 687.5H576L580 686C582 685.5 586.8 683.3 590 678.5L587.5 680V677H585L587.5 673.5C589.167 671.5 593 665.7 595 658.5C596.833 663.333 601.7 673.3 606.5 674.5L602 674L605 676.5H601L603 678.5H599C599.667 680.167 602.8 683.7 610 684.5L611.5 683H608L614 681.5C615.833 680.333 620.1 677.1 622.5 673.5L619.59 674.5L620.5 672H618C621.333 668 627.8 658.7 627 653.5C629.167 658.5 634.4 668.8 638 670L634.5 669.5L637 672L633 671C633.167 671.667 634 673.2 636 674L632 673.5C631.833 674.667 632.9 677.6 638.5 680L643 680.5L640 681.5L641.5 682H636.5L639 684C637.5 684.5 634.2 685.2 633 684C633.333 685.5 635.2 689.1 640 691.5C641.167 691.833 644.2 692.5 647 692.5H648.5C647.667 693 645.8 694 645 694C644.333 694 642.8 693.9 642 693.5L645 696.5L639.5 694L641 697C639.833 697 637.2 696.8 636 696C635 695.833 633.8 696.1 637 698.5C639.333 698.667 645.3 698.5 650.5 696.5C652 696.167 655.5 695.1 657.5 693.5L653 693L653.5 691.5L648 692L649.5 689.5H643L646 688L642 687.5L648.5 686C651 685.5 657.3 683.3 662.5 678.5C663.333 677.5 663.6 676.1 658 678.5L658.5 676.5L655 677C658.5 674.833 665.9 668.3 667.5 659.5C670.5 664 677.6 673.1 682 673.5L678.5 674L682.5 676.5L677 676L680.5 678.5C677 678.167 671.5 678.3 677.5 681.5C679.833 682.5 685.8 684.7 691 685.5L687.5 686L689.5 687H683L686 689.5C683.833 689.667 679 689.7 677 688.5C676.833 689.333 678 691.6 684 694C685.667 694.833 690.7 696.6 697.5 697L690.5 698L694 701.5C691.667 700.833 686.7 699.2 685.5 698C685.667 698.667 686.4 700.3 688 701.5C686.167 701.833 682 702 680 700C681 702.333 685.2 707.4 694 709C697.167 708.667 704.4 707 708 703L702.5 704L704 701.5L700 702L705 697.5C707.333 695.167 712.3 689 713.5 683C716.333 688 723.5 698.4 729.5 700L724 699L729 701.5H722L726 703.5L720.5 704C721.833 705.667 726.9 709.1 736.5 709.5L733.5 711L735 712.5L729 712L732 714C726.5 713.333 717.5 712.9 725.5 716.5C728.5 718.333 736.3 722 743.5 722L736.5 723L738 724.5L731.5 723.5L733 726L733.5 726.5C731.833 726.5 727.8 726.2 725 725C726 726.5 729.2 729.8 734 731C735.833 732.167 740.2 734.5 743 734.5C744.833 734.5 748.8 734.1 750 732.5H745.5L746.5 731L740 731.5L742 729.5H734L738 727.5L734.5 726.5C736.333 726.333 740.6 725.8 743 725C748.167 722.5 759.1 716.6 761.5 713C762.333 712.333 762.7 711.4 757.5 713L758.5 711L755.5 712C758.667 708.833 765.7 700.6 768.5 693C771.5 697.833 778.7 707.9 783.5 709.5L779 709L783 711H777L781 713L775 713.5C776.833 715.5 782.7 719.4 791.5 719L788 720L789.5 721.5L783 721L786.5 723.5L779 723C777.5 722.667 775.5 722.8 779.5 726C782 727.5 787.9 730.6 791.5 731L794.286 731.929L797.5 730.5L793 730L799.5 729C803.833 727.667 810.7 724.7 803.5 723.5L811.5 723C813.833 721.667 816.8 719.3 810 720.5L810.5 718.5L807 720L810 716C812.667 713.833 818.4 707.7 820 700.5L823.5 705H828L826.5 703.5L832.5 702.5H836C836.333 701.5 836.1 699.7 832.5 700.5H830.5L831.5 699L825 700L827.5 697.5H819.5L824.5 695.5L821 695L829 693C831.167 692.833 836.3 691.3 839.5 686.5L835 687L837 684.5L832.5 686C836.167 683 844 675.1 846 667.5C849.333 672 857.4 681.5 863 683.5L857.5 682.5L861.5 685.5L855.5 684.5C855.5 685 856.1 686.2 858.5 687H853.5C854.333 688.833 858.6 692.7 869 693.5L866 694L867.5 696L861 695L864.5 697.5H857.5C855.5 697 853.1 697 859.5 701L869 705L870.5 706H868.5L869.278 706.778L875.5 705L871 703.5L878 702.5C882.667 701.167 889.9 698.3 881.5 697.5L889 697C891.667 695 895.1 691.8 887.5 695L888.5 693L885.5 694C889.833 689.5 898.4 679.3 898 674.5C899 676.167 901.2 679.5 902 679.5C904.333 678.833 909.6 677.1 912 675.5L909 674.5V673L903.5 673.5L905 671L897 672L902 669.5L898 668.5H903C907.167 666.667 915.9 662.3 917.5 659.5L913 660L914 658L911 659C914.5 655.833 921.9 647.5 923.5 639.5C927 644.667 934.5 654.9 936.5 654.5L934.5 655.5L936.5 657.5H932L935.5 660H931C931.667 662 935.8 666.1 947 666.5L943 667.5L944.5 668.5H939L942 671C939.167 670.833 933.2 670.3 932 669.5C933.833 672.167 939.2 677.7 946 678.5L944.5 679.5L944.884 679.756L950 676.5L946 675.5L952.5 674.5C956.167 673.333 964.3 669.9 967.5 665.5L962.5 667L963 664.5L960 665C964 661.333 972.2 652.3 973 645.5C975.667 650.167 982.6 660.2 989 663L983.5 662L987 664.5H981C982 665.667 985.2 667.5 990 665.5C993.167 664.5 1000.5 661.3 1004.5 656.5L999.5 658V655.5L992 658L994 655H984L988.5 653L979.5 652L990.5 650L1000 647.5C1003.33 646.333 1008 644 1000 644H994.5L997 641.5L988.5 642.5L992.5 640.5L989.5 640L995.5 638C998.5 637 1005.4 634.2 1009 631C1009.83 629.833 1010.8 628 1008 630L1004.5 630.5L1006 628L1002.5 629.5C1007.17 624.667 1016.3 613.8 1015.5 609C1018.33 614.167 1025.6 625 1032 627L1026.5 626L1030 628.5L1024.5 628L1028 630.5C1024.5 630.167 1018.9 630.1 1024.5 632.5C1026 633.5 1029.7 635.6 1032.5 636L1038 636.5L1036.5 637L1038 637.5L1035.5 638L1036.5 639H1032.5C1031.33 638.833 1029.8 638.8 1033 640C1031.17 640.667 1026.9 641.6 1024.5 640C1024.33 641.167 1025.2 643.9 1030 645.5C1032.67 646.667 1039.4 649 1045 649L1038 650L1041.5 653.5L1034 650.5C1032.67 650 1030.9 649.9 1034.5 653.5C1032.67 653.667 1028.6 653.6 1027 652C1029.17 654.833 1036.3 660.8 1047.5 662H1050.5C1051.5 660.833 1052.3 659 1047.5 661L1048 658.5L1043 659.5L1045 657.5L1042 657L1045 656L1043.5 655.5C1046.67 655 1053.5 652.9 1055.5 648.5C1056.67 647 1057.9 644.8 1053.5 648L1054 645.5L1052 646C1055 641.5 1061 631.4 1061 627C1062.83 631.5 1067.6 641.2 1072 644L1068 642.5C1068.67 643.333 1070.2 645.1 1071 645.5C1070 645.833 1067.8 646.3 1067 645.5C1067 646 1067.4 647.1 1069 647.5C1068.33 647.833 1066.6 648.3 1065 647.5C1066.17 649.333 1070 653.3 1076 654.5L1074.5 655L1075 656H1071L1073.5 658.5C1072.33 658.667 1069.2 658.6 1066 657C1066.33 658.667 1067.9 662.2 1071.5 663C1074.17 662.833 1080.8 661.5 1086 657.5L1083 657L1083.5 656H1078.5L1080.5 654.5L1075 654L1078.5 652.301L1074.5 651.5C1077.83 651 1085.3 648.5 1088.5 642.5L1085 643L1087 640.5L1084 641C1087.17 637 1093.4 627.9 1093 623.5C1095.17 628.167 1100.3 637.7 1103.5 638.5L1100.5 639L1102.5 640.5H1098.5C1099 641.167 1100.2 642.5 1101 642.5L1097.5 643C1098.83 645 1102.9 649.1 1108.5 649.5L1106.5 650L1107.5 651H1103.5L1104.5 652.301L1105.5 653.5C1104 653.5 1100.5 653.3 1098.5 652.5C1100.5 655.5 1105.3 661.4 1108.5 661L1113.5 661.5L1108 662L1110.5 664.5C1109 664.167 1105.8 663.3 1105 662.5C1105.17 663.333 1105.7 665.1 1106.5 665.5C1105.33 665.667 1102.7 665.7 1101.5 664.5C1101.33 665.5 1101.6 667.7 1104 668.5C1108.67 668 1119 666.2 1123 663L1124 662H1119L1119.5 660.5L1113.5 661L1116 659H1108.5L1111.5 657.5L1106.5 656.5C1112.5 655.5 1125.4 652.1 1129 646.5L1123.5 648L1125.5 645L1121 646C1125.5 642.167 1134.4 632.9 1134 626.5C1136.83 631.5 1144 641.9 1150 643.5L1145 643L1148 645.5L1143 645L1146.5 648C1142.83 647.5 1137.2 647.3 1144 650.5C1147 651.667 1153.7 654 1156.5 654L1154 655L1155 656H1149.5C1150 656.833 1151.2 658.5 1152 658.5C1149.5 658.667 1144.1 658.7 1142.5 657.5C1144.17 659.5 1148.7 663.7 1153.5 664.5L1164 666L1157 666.5L1160 670C1157.83 669.667 1153.1 668.6 1151.5 667C1151.33 668.167 1151.7 670.6 1154.5 671C1152.17 671.167 1147 671 1145 669C1148.17 672.333 1156 678.8 1162 678H1165.5L1164.5 677C1171 677 1181.3 676.6 1170.5 675L1173 673.5L1166.5 673L1170 672H1165C1170 668.667 1180.3 660.4 1181.5 654C1182.83 658.833 1187.4 669.5 1195 673.5L1190.5 672.5L1193 674.5C1192 674.833 1189.4 675 1187 673C1188.5 675.5 1193.5 680.9 1201.5 682.5C1202.5 682.833 1204.8 683.1 1206 681.5C1207.17 680 1209.5 676.7 1209.5 675.5C1211.5 680.667 1216.7 691.2 1221.5 692L1220.5 692.5L1223 693.5L1219.5 694L1221.5 695.5C1220.17 695.5 1217.2 695.4 1216 695C1218.33 697.167 1224.1 701.8 1228.5 703L1229.5 703.5C1230.5 703.667 1232.6 703.8 1233 703L1240 699C1241 697.833 1242.1 696 1238.5 698L1233.5 698.5L1236 695.5C1235.67 695 1234.3 694.5 1231.5 696.5L1227 698L1229.5 695L1222.5 694.5L1224.5 694L1222.5 693H1231L1229 692H1232.5C1238.67 689.167 1248.9 684 1240.5 686H1234L1237 684L1231.5 683.5L1232.5 682.5L1228.5 681.5C1231.5 681.333 1238.1 680.6 1240.5 679C1243.83 677.5 1249.2 674.7 1244 675.5H1240.5L1243.5 674C1244.17 673.5 1244.3 672.6 1239.5 673L1241 671.5L1236.5 672C1240.17 669.167 1248.5 661.7 1252.5 654.5C1253.33 658.833 1257 668.2 1265 671L1262.5 671.5L1266 673H1262.5L1264 675C1262.33 674.667 1258.8 673.8 1258 673C1260.17 675.833 1266.6 681.8 1275 683L1280.5 683.5L1275 684L1277.5 685.5H1271.5L1272.45 686.447L1280.5 686C1282.5 685.333 1286.9 683.6 1288.5 682C1289.17 681.5 1289.3 680.6 1284.5 681L1286.5 679.5L1281 679L1284 677.5H1279.5C1283.67 674.667 1292.7 667.1 1295.5 659.5C1297 664 1301.9 674.2 1309.5 679L1305.5 677.5L1308 680.5C1306.67 680.5 1303.6 680.2 1302 679C1303.17 681.167 1307.5 685.9 1315.5 687.5L1320.5 689L1317.5 689.5C1318 690.167 1319.8 691.3 1323 690.5L1335.5 684L1336 682.5C1333.83 683.167 1329.2 684.3 1328 683.5L1331 680.5L1323 683.5L1325 680.5L1317.5 679C1321 679.333 1330.2 678.2 1339 671H1329L1332.5 669.5H1326.5L1328 668L1324 667L1333.5 665.5C1339 662.667 1347.3 657.7 1336.5 660.5L1339 658.5H1333.5L1336.5 656L1331.5 656.5C1336.33 653.333 1346.3 645.6 1347.5 640C1349.5 645.5 1354.8 656.2 1360 655L1358 656L1361.5 658.5H1358L1359 660.5C1356 659.333 1350.9 657.7 1354.5 660.5C1358.5 663.333 1368 668.9 1374 668.5L1369.5 669.5L1374.5 671.5L1367 671L1368.5 674L1362 673L1363 674.5C1359.83 673.833 1354.8 673.1 1360 675.5C1363.67 677 1371.3 679.9 1372.5 679.5L1381.5 680.5L1374.5 682L1378.5 684L1369 684.5L1371.5 687L1363.5 685L1364 687L1358 685C1358.67 687 1360.8 690.9 1364 690.5C1366.5 692.333 1373.2 696.1 1380 696.5C1381 696.167 1383.1 695.1 1383.5 693.5C1382.17 694.167 1379.3 695.4 1378.5 695L1380 692.5L1374 693.5L1377 690.5C1375 690.667 1370.3 690.6 1367.5 689C1371 688.333 1377.8 687 1377 687C1380.17 685.167 1386.6 680.9 1387 678.5L1382 680.5L1382.5 677L1377 679L1379 676H1374C1377.5 675.167 1385.2 672.2 1388 667H1381.5L1383.5 665.5L1378 663C1380.67 662.333 1386.5 660.5 1388.5 658.5C1389.67 657.667 1391 656.1 1387 656.5L1388 655H1383.5L1387 652.5H1382.5C1386.17 649.667 1393.6 642.3 1394 635.5C1395.17 640.667 1398.5 651.3 1402.5 652.5L1400 653L1403.5 655H1400C1398.67 655 1397.3 656.1 1402.5 660.5L1411.5 665L1409.5 665.5L1412.5 668L1407 667L1408.5 669.5H1405C1403.67 669.667 1401.9 670.3 1405.5 671.5C1407.83 671.5 1413.5 670.5 1417.5 666.5L1422 661.5C1420.83 662 1418 663 1416 663L1418.5 659L1412.5 663L1414 659L1408.5 658.5C1411.67 658.5 1419.2 656.8 1424 650C1422 650.333 1417.6 650.8 1416 650L1419 648.5L1412.5 647L1419 645C1422.67 642.667 1428.4 638.4 1422 640L1420 640.5L1422.5 638H1419L1421.5 636H1418.5C1421.5 633 1427.9 625.2 1429.5 618C1430.17 623.167 1432.9 634.4 1438.5 638L1435 637L1437.5 640L1433 638C1435.17 641 1441.1 647.3 1447.5 648.5L1444.5 649L1447.5 651L1442.5 650L1443.5 652.5H1439.5L1440.5 654C1438.17 653.5 1434.5 653 1438.5 655C1438.8 655.3 1439.26 655.691 1439.85 656.12C1445.74 655.08 1457.8 651.6 1459 646C1459.5 644.833 1459.4 643.4 1455 647L1456 643L1450 646L1452 643L1446 642L1452 640.5C1456.67 637.5 1464.8 631.9 1460 633.5H1455L1456.5 632H1452L1454 631L1451 629.5C1453.33 629.167 1458.8 627.9 1462 625.5C1463.67 624.167 1465.4 621.9 1459 623.5L1461.5 621L1457.5 621.5L1459 619L1456 619.5C1458.67 617 1464.4 610.2 1466 603C1467.33 607.833 1471.2 617.9 1476 619.5L1473.5 620L1476 621.5H1472.5C1471.33 621.5 1469.7 622 1472.5 624C1474.5 626.333 1479.9 631 1485.5 631L1481 632L1486 634.5H1480L1481 636H1476L1478 637C1475.5 636.833 1471.6 637 1476 639C1479.33 640.667 1486.9 644 1490.5 644C1493.5 643.333 1500.4 641.4 1504 639L1506 637C1506.33 636.667 1506.3 636.2 1503.5 637C1502.33 637.333 1499.5 637.9 1497.5 637.5L1500 634.5L1491.5 638L1494.5 634.5L1487.5 633.5L1496.5 632C1499.67 631.167 1506.4 628.7 1508 625.5L1498.5 624.5L1502.5 623.5L1496.5 622.5L1498 622L1494.5 621C1497.33 621 1504.3 619.9 1509.5 615.5L1505.5 614.5L1508 613.5L1503.5 612.5L1506 610.5H1500.5C1505.17 608.167 1515 601.5 1517 593.5C1518.67 598.833 1523.8 610.1 1531 612.5L1526 611.5L1528.5 613.5C1527.33 613.833 1524.6 614.3 1523 613.5C1524.75 615.018 1527.23 617.043 1529.86 619L1539.5 617C1544.5 616 1555.1 613 1557.5 609C1557.83 608.167 1557.8 607 1555 609C1553.83 609 1551.2 608.9 1550 608.5L1552 605.5C1550.17 606.5 1546 608.5 1544 608.5L1546.5 605.5L1539.5 605L1548 603.5C1551.33 602.5 1558.4 599.8 1560 597C1558 597.167 1553.5 597.3 1551.5 596.5L1553 594.5H1548.5L1549.5 593.5L1546 592C1549 592.667 1556.3 592.6 1561.5 587L1557 586L1560 585L1555 584L1557.5 582.5L1553.5 582C1558.67 578 1568.9 569.2 1568.5 566C1570.83 571.167 1576.8 581.7 1582 582.5H1579.5L1582.5 584.5L1579 584L1580 585.5L1575.5 584.5C1576.47 586.03 1579.51 589.324 1584.68 592C1587.95 592.167 1595.2 592.1 1598 590.5C1599.5 589.833 1602.7 588.2 1603.5 587C1604.5 586.333 1605 585.2 1599 586L1602.5 584.5L1596 584L1599 582.5H1594.5C1598.33 579.833 1606.8 572.6 1610 565C1611.5 569.5 1616.4 579.6 1624 584H1620L1622.5 586L1616.5 585C1620.33 588.167 1629.5 595 1635.5 597L1628 596.5L1631 598.5H1624L1625 600L1620 599.5C1621.33 600.5 1624.5 602.5 1626.5 602.5C1630.5 602 1640 599.5 1646 593.5C1644.5 594.167 1640.8 595.3 1638 594.5L1640 591.5L1632.5 594.5L1634.5 590.5H1628L1636.5 589C1639.83 587.667 1646.9 584.5 1648.5 582.5L1639 582L1642 580L1635.5 578.5C1639.33 577.833 1647.7 575.6 1650.5 572H1645L1648.5 570L1642.5 569.5L1646 567.5H1642C1645.83 564.833 1654.2 557.8 1657 551C1658.67 556.333 1663.7 567.5 1670.5 569.5L1665.5 569L1668.5 571L1663 570C1665.5 572.167 1671.1 576.6 1673.5 577C1677.5 576.5 1686.6 574.2 1691 569C1689.33 569.5 1685.5 570.3 1683.5 569.5L1685.5 566.5L1677.5 569.5L1679.5 566.5L1672.5 565.5L1682 564C1685.17 563 1692 560.2 1694 557L1685 557.5L1687.5 555.5L1682 554.5L1679.5 553.5C1684.17 553.167 1694 551.5 1696 547.5L1691 546.5L1694 545L1689.5 544L1692 542.5L1688.5 542C1692.33 539 1700.5 531.6 1702.5 526C1703.67 530 1708 539.4 1716 545L1712 544L1713.5 545.5C1710.17 544.667 1704.9 543.9 1710.5 547.5C1714.12 550.461 1722.87 556.15 1729.25 555.528L1725 556L1728.5 557.5H1721L1723 559C1720.83 559.667 1715.9 560.9 1713.5 560.5C1716.67 562.167 1724.1 565.7 1728.5 566.5C1730.5 567.167 1734.8 567.7 1736 564.5L1730 565L1731.5 562.5L1726.5 564L1728.5 561.5C1726.67 561.667 1723 561.7 1723 560.5L1729.5 559C1731.33 558.833 1735.6 557.3 1738 552.5H1731.5L1733.5 550.5C1731.83 550.167 1728.5 549.3 1728.5 548.5C1730.33 548.667 1734.9 548.1 1738.5 544.5C1739.5 543.5 1740.4 541.5 1736 541.5L1738 540L1734 539.5L1736 538H1733.5C1735.67 536.333 1740.7 531 1743.5 523C1744.83 527.167 1748.6 535.9 1753 537.5L1751 538L1753 539.5L1750.5 540L1751 541.5C1748.83 540.5 1745.5 539.5 1749.5 543.5C1750.67 545.167 1754.8 548.9 1762 550.5L1759 551L1761.5 552.5H1757L1758 554.5L1753.5 555L1754.5 556C1752.33 555.833 1749 555.9 1753 557.5L1758 560L1761.5 562C1762.67 562.167 1765.4 562.3 1767 561.5C1768 560.333 1770.2 557.8 1771 557C1769.33 557.333 1765.7 557.8 1764.5 557L1766 555L1762 555.5L1763 554L1759 553C1761.83 553 1768.2 552.1 1771 548.5C1772.33 547.833 1773.7 546.6 1768.5 547L1770 545.5L1766 544.5L1768.5 543H1765C1767.83 540.333 1773.9 533.3 1775.5 526.5C1777.17 531.167 1781.5 541.3 1785.5 544.5H1783L1784 546L1780.5 545.5C1782.17 548.333 1787.2 554.3 1794 555.5L1791.5 556L1794.5 558L1789 557.5L1790.5 559H1786C1786.05 559.632 1786.25 560.475 1786.66 561.38C1789.55 561.204 1792.89 560.804 1794.5 560C1798.5 558.833 1807.2 555.5 1810 551.5C1808.17 552 1804.1 552.8 1802.5 552L1804.5 549.5C1802.67 549.833 1798.5 550.8 1796.5 552L1798 549.5L1791.5 548.5L1799.5 547C1803 546.167 1810.6 543.6 1813 540C1811 540.333 1806.3 540.7 1803.5 539.5L1806 538H1801L1802 537L1797.5 536.5L1805.5 535C1808 534.167 1811.7 533.2 1812.5 532L1813 530H1809L1813 526.5L1807 527.5L1810 526H1805.5C1809.33 523.167 1815.4 514.1 1819 506.5C1819.67 511.167 1825.9 523.1 1835.5 527.5L1830.5 526L1833 529C1831.33 528.833 1827.8 528.3 1827 527.5C1827.67 529.667 1832.7 534.8 1847.5 538H1843.5L1847.5 540.5C1845.83 540.833 1842 541.2 1840 540L1842.5 542.5L1836 542L1837 543.5H1832C1833.83 544.667 1838.5 547.2 1842.5 548C1845.53 548.827 1851.48 550.2 1854.81 550.199L1856.5 550C1856.08 550.139 1855.5 550.199 1854.81 550.199L1848 551L1852 553.5H1843.5C1843.5 554.167 1843.8 555.6 1845 556C1843.33 556.167 1839.7 556 1838.5 554L1837.5 557C1836.33 556.667 1833.8 555.7 1833 554.5C1832.67 555.5 1832.7 557.7 1835.5 558.5C1838.5 560.5 1845.7 564.7 1850.5 565.5H1853.5C1855.17 564.5 1857 562.8 1851 564L1852 562L1847.5 562.5C1851.83 559.667 1861.1 552.1 1863.5 544.5C1866.17 550.5 1872.7 562.7 1877.5 563.5H1873.5L1875.5 565.5C1874.33 565.667 1871.6 565.5 1870 563.5C1870.17 564.833 1871.6 567.9 1876 569.5C1879 571 1886.2 574 1891 574L1886 574.5L1889.5 576.5L1883 576L1883.56 577.392C1888.06 577.185 1894 576.831 1894 576.5C1896.83 575.667 1902.9 573.2 1904.5 570C1902.5 570.333 1897.9 570.7 1895.5 569.5L1898.5 568H1892L1893 567L1889.5 565.5C1892.67 566.167 1900.4 566.1 1906 560.5C1906.67 559.5 1906.8 558 1902 560L1904.5 558C1905.33 557.667 1905.5 557.1 1899.5 557.5L1902 555.5H1897.5C1901.5 552.833 1910.2 545.6 1913 538C1914.33 542.333 1917.7 551 1920.5 551V852L1857.5 977.5L0.5 941.5V706.5Z" fill="#2C4655"/>
</svg>
